<svg id="Layer_1" viewBox="0 0 512 512" xmlns="http://www.w3.org/2000/svg" data-name="Layer 1"><path style="fill:#ffffff" d="m122.3 480.311a6.079 6.079 0 0 0 6.238-.368l127.441-87.66 127.43 87.66a6.012 6.012 0 0 0 3.405 1.057 6.37 6.37 0 0 0 2.885-.689 6.088 6.088 0 0 0 3.301-5.311v-438a6.157 6.157 0 0 0 -6.181-6h-261.638a6.157 6.157 0 0 0 -6.181 6v438a6.085 6.085 0 0 0 3.3 5.311zm8.7-437.311h250v58h-250zm0 70h250v350.589l-121.509-83.532a6.132 6.132 0 0 0 -3.446-1.057 6.351 6.351 0 0 0 -3.514 1.057l-121.531 83.532z"/><path style="fill:#ffffff" d="m280 55h12v32h-12z"/><path style="fill:#ffffff" d="m250 55h12v32h-12z"/><path style="fill:#ffffff" d="m220 55h12v32h-12z"/><path style="fill:#ffffff" d="m190 55h12v32h-12z"/><path style="fill:#ffffff" d="m160 55h12v32h-12z"/><path style="fill:#ffffff" d="m310 55h12v32h-12z"/><path style="fill:#ffffff" d="m340 55h12v32h-12z"/><path style="fill:#ffffff" d="m149 129h12v15h-12z"/><path style="fill:#ffffff" d="m149 156h12v95h-12z"/><path style="fill:#ffffff" d="m302.938 328.837a6 6 0 0 0 8.706-6.325l-8.965-52.266 37.974-37.015a6 6 0 0 0 -3.326-10.231l-52.478-7.625-23.469-47.557a6 6 0 0 0 -10.76 0l-23.469 47.554-52.478 7.628a6 6 0 0 0 -3.326 10.234l37.974 37.015-8.965 52.266a6 6 0 0 0 8.706 6.325l46.938-24.679zm-88.7-16.279 7.442-43.392a6 6 0 0 0 -1.725-5.311l-31.527-30.731 43.572-6.331a6 6 0 0 0 4.517-3.282l19.483-39.48 19.485 39.48a6 6 0 0 0 4.515 3.282l43.569 6.331-31.527 30.731a6 6 0 0 0 -1.725 5.311l7.442 43.392-38.969-20.487a6 6 0 0 0 -5.584 0z"/></svg>