<?xml version="1.0"?>
<svg xmlns="http://www.w3.org/2000/svg" id="Layer_1" data-name="Layer 1" viewBox="0 0 512 512" ><path style="fill:#ffffff" d="M443.752,112.271,259,9.493a6.08,6.08,0,0,0-5.878,0L68.268,112.271A6.182,6.182,0,0,0,65,117.514v134.3A260.267,260.267,0,0,0,221.673,490.445L251.32,502.8a6.207,6.207,0,0,0,2.354.464,6.1,6.1,0,0,0,2.408-.5l30.886-13.385A260.487,260.487,0,0,0,447,249.391V117.514A6.16,6.16,0,0,0,443.752,112.271ZM435,249.391A248.57,248.57,0,0,1,282.357,478.345l-28.643,12.4L226.4,479.406A248.26,248.26,0,0,1,77,251.817V121.042L256,21.6l179,99.44Z"/><path style="fill:#ffffff" d="M253.082,39.9,95.034,127.894A5.953,5.953,0,0,0,92,133.136V251.817A233.492,233.492,0,0,0,232.315,466c.026.012.029.023.057.035l18.852,7.884a5.975,5.975,0,0,0,4.69-.031l20.729-8.986A233.511,233.511,0,0,0,420,249.4V133.136a5.953,5.953,0,0,0-3.034-5.242L258.894,39.9A5.958,5.958,0,0,0,253.082,39.9Zm-5.5,419.494-10.516-4.416A221.5,221.5,0,0,1,104,251.817V136.664l145.991-81.28-.6,103.393a97.451,97.451,0,0,0-1.193,194.363ZM261.9,55.32,408,136.664V249.4A221.485,221.485,0,0,1,271.916,453.865l-12.35,5.358.615-105.865A97.449,97.449,0,0,0,261.338,158.7ZM341.454,256A85.454,85.454,0,1,1,256,170.546,85.551,85.551,0,0,1,341.454,256Z"/><path style="fill:#ffffff" d="M133,207H121v31.817A234.132,234.132,0,0,0,150.074,351.8L160.6,346A222.121,222.121,0,0,1,133,238.817Z"/><rect style="fill:#ffffff" x="121" y="176" width="12" height="13"/><path style="fill:#ffffff" d="M211.561,249.59l-8.614,8.354,32.2,33.215A5.963,5.963,0,0,0,239.4,293h.046a6.013,6.013,0,0,0,4.242-1.776l61.3-61.308-8.484-8.49-56.991,56.989Z"/></svg>
