<?xml version="1.0" encoding="UTF-8" standalone="no"?>
<svg xmlns="http://www.w3.org/2000/svg" viewBox="0 0 128 128" width="24" height="24">
<path style="fill:#ffffff" d="m29.132944 59.700049c20.043139-8.73248 33.408373-14.489465 40.095696-17.270954 19.093674-7.941719 23.061178-9.321281 25.647135-9.36732 0.568758-0.009534 1.840459 0.131422 2.664219 0.799842 0.695557 0.564401 0.886933 1.326826 0.978512 1.861939 0.091584 0.535114 0.205621 1.754117 0.114971 2.70661-1.034694 10.87161-5.511798 37.254128-7.789483 49.430512-0.963781 5.152288-2.861488 6.879824-4.698688 7.048885-3.992661 0.367408-7.024512-2.638629-10.891605-5.173552-6.051232-3.966661-9.469792-6.43592-15.343563-10.306651-6.788154-4.47329-2.387674-6.931893 1.480875-10.949935 1.012416-1.051536 18.604187-17.052614 18.944672-18.504161 0.042586-0.181536 0.082106-0.858229-0.319904-1.215552-0.402016-0.357323-0.995355-0.235131-1.42352-0.137952-0.606923 0.137744-10.27384 6.527227-29.00077 19.168433-2.743923 1.884186-5.229284 2.802229-7.456082 2.754117-2.454866-0.05304-7.177043-1.388021-10.687497-2.529125-4.305714-1.399616-7.727811-2.139611-7.429824-4.516592 0.155211-1.238086 1.860163-2.504267 5.114856-3.798544z" />
</svg>
