<svg id="Layer_1" viewBox="0 0 512 512"  xmlns="http://www.w3.org/2000/svg" data-name="Layer 1"><path style="fill:#ffffff" d="m256 360.169a103.669 103.669 0 1 0 -103.669-103.669 103.787 103.787 0 0 0 103.669 103.669zm-91.436-110.169a91.3 91.3 0 0 1 22.781-54.17l9.111 9.112 8.486-8.485-9.082-9.083a91.286 91.286 0 0 1 53.14-22.274v12.9h12v-13.031a91.273 91.273 0 0 1 54.6 21.942l-9.545 9.546 8.486 8.485 9.642-9.642a91.316 91.316 0 0 1 23.25 54.7h-13.433v12h13.5a91.281 91.281 0 0 1 -22.373 54.64l-10.582-10.582-8.486 8.485 10.612 10.613a91.293 91.293 0 0 1 -55.671 22.875v-15.031h-12v14.9a91.312 91.312 0 0 1 -54.2-23.218l10.141-10.143-8.486-8.485-10.043 10.046a91.268 91.268 0 0 1 -21.912-54.1h14.5v-12z"/><path style="fill:#ffffff" d="m255 263h32v-12h-26v-45h-12v51a6 6 0 0 0 6 6z"/><path style="fill:#ffffff" d="m172.6 493h160.8a6.048 6.048 0 0 0 5.994-5.762l6.373-130.982a134.065 134.065 0 0 0 0-199.478l-6.376-132.011a6.05 6.05 0 0 0 -5.991-5.767h-160.8a6.046 6.046 0 0 0 -5.994 5.774l-6.412 137.766a134.019 134.019 0 0 0 .049 187.937l6.366 136.746a6.049 6.049 0 0 0 5.991 5.777zm155.08-12h-149.35l-1.3-28h152.015zm1.946-40h-153.159l-3.686-79.184a134.106 134.106 0 0 0 160.482 4.471zm-151.296-410h149.351l1.352 28h-152.007zm-1.863 40h153.145l3.656 75.73a134.1 134.1 0 0 0 -160.536 4.48zm-42.711 185.5a122.244 122.244 0 1 1 122.244 122.245 122.383 122.383 0 0 1 -122.244-122.245z"/><path style="fill:#ffffff" d="m215 89h88v12h-88z"/><path style="fill:#ffffff" d="m191 89h12v12h-12z"/></svg>