<svg id="Layer_1" data-name="Layer 1" xmlns="http://www.w3.org/2000/svg" viewBox="0 0 59.42 94.99"><defs><clipPath id="clip-path"><path fill="none" d="M0 0h59.42v94.99H0z"/></clipPath><style>.cls-3{fill:#303030}</style></defs><g clip-path="url(#clip-path)"><path class="cls-3" d="M15.77 2.91c-.54 2.92-.9 5.83-1.15 8.79-.24 2.78-1 6.09-.45 8.84.05.31.49.26.57 0 .82-2.57.53-5.79.74-8.49C15.72 9 16 6 16.24 3c0-.26-.42-.33-.47-.06"/><path class="cls-3" d="M15.87 3.25c.16 0 .24-.16.38-.25a1 1 0 01.75-.11.92.92 0 01.55.49c.08.17.07.29.25.36a.18.18 0 00.2 0v-.05a.25.25 0 00.06-.25 1.4 1.4 0 00-1.22-1c-.38 0-1.18.25-1.13.74a.06.06 0 00.08.06"/><path class="cls-3" d="M17.74 3.42c-.54 4.45-.56 9-.69 13.49a.45.45 0 00.9 0c.17-4.47.46-9 .2-13.49a.21.21 0 00-.41 0"/><path class="cls-3" d="M17.82 3.68c2.3-2.31 6.4-2.95 9.52-2.91 2.87 0 7.23.54 8.86 3.21a.37.37 0 00.67-.28C35.93.57 30.66.1 28 0c-3.41-.11-8.33.4-10.41 3.48a.15.15 0 00.24.19"/><path class="cls-3" d="M17.71 3.25a3.86 3.86 0 00-.08 1 1.78 1.78 0 00.14.86.14.14 0 00.23 0 1.77 1.77 0 00.13-.86 3.43 3.43 0 00-.08-1 .18.18 0 00-.34 0"/><path class="cls-3" d="M17.69 3.18a10.93 10.93 0 000 4.15.08.08 0 00.16 0 10.73 10.73 0 000-4.15.07.07 0 10-.13 0M16 3.8c.15-.14.13-.38.25-.56a1 1 0 01.54-.38c.2-.06.17-.39 0-.37a1.06 1.06 0 00-.79.52c-.13.22-.28.64 0 .8h.05m20.27-.25c-.51 1.92.15 4.39.33 6.36a37.41 37.41 0 00.78 6.42.34.34 0 00.67-.09 38.87 38.87 0 00-.62-7c-.22-1.78-.12-4.06-1-5.67a.11.11 0 00-.19 0m-18.8 13.54a8.66 8.66 0 003.48.41h4.71c2.73 0 5.92.44 8.53-.52a.22.22 0 00-.06-.43c-5.5 0-11.09.64-16.61.31-.1 0-.15.16-.05.2m-3.25 3.84c1.86.11 3.72 0 5.58.12.6 0 .59-.86 0-.92a13.71 13.71 0 00-5.63.42.19.19 0 00.05.38m.35-1.52a14.05 14.05 0 004.53.13c.09 0 .06-.16 0-.16a39.92 39.92 0 00-4.51 0v.05"/><path class="cls-3" d="M14.21 20.42a6.51 6.51 0 001.53.14 3.27 3.27 0 001.36-.12.14.14 0 000-.23 3.12 3.12 0 00-1.36-.12 6.5 6.5 0 00-1.53.13.1.1 0 000 .2"/><path class="cls-3" d="M14.16 20.73a3.67 3.67 0 000-2.27.08.08 0 00-.15 0 4 4 0 00-.08 1v1.18a.14.14 0 00.27 0m.29-5.25c-.55.23-1.08.52-1.61.78s-1 .36-1.21.76c-.06.08 0 .18.11.19.46 0 .92-.35 1.33-.56s1.06-.53 1.57-.84a.19.19 0 00-.19-.33"/><path class="cls-3" d="M11.55 17a49 49 0 01-1 5.07c-.49 1.64-1.39 3.26-1.65 4.93 0 .16.19.34.32.18a12.18 12.18 0 001.87-4.62 23.44 23.44 0 00.8-5.53c0-.19-.31-.24-.34 0m3.05 3.83a4.6 4.6 0 00-.13 1.53.36.36 0 00.18.32.33.33 0 00.38 0 .36.36 0 00.18-.32 4.63 4.63 0 00-.13-1.53.25.25 0 00-.48 0"/><path class="cls-3" d="M4 33.29c3.18-4.48 7-8.35 12.07-10.64a27.7 27.7 0 019.07-2.32 26.59 26.59 0 014.55 0c1.5.13 3 .59 4.49.6a.24.24 0 00.12-.45c-2.56-1.33-6.37-1.19-9.16-1a26.58 26.58 0 00-8.89 2.29A25.72 25.72 0 003.84 33.2a.1.1 0 00.17.09"/><path class="cls-3" d="M5.2 31.34a2.86 2.86 0 01.39-.68c.16-.22.37-.37.53-.57 0 0 0-.1-.06-.08a2.05 2.05 0 00-.92 1.31s.05.05.06 0m.88-1.45"/><path class="cls-3" d="M6.69 28.67c-3.87 4-6 10.22-6.54 15.69a30.41 30.41 0 00.37 8.57c.5 2.71 1.29 5.82 3 8 .14.17.42 0 .36-.21C3.15 58.1 2 55.68 1.44 53a30.21 30.21 0 01-.39-8.33 31.17 31.17 0 011.82-8.14A37.42 37.42 0 017.08 29c.16-.24-.2-.52-.39-.31"/><path class="cls-3" d="M3.09 60c.48 1.73 1.9 3.33 3 4.69A28.87 28.87 0 0022 74.42a.42.42 0 00.22-.81 32.86 32.86 0 01-10.77-5.11A33.85 33.85 0 017 64.59c-1.36-1.46-2.33-3.32-3.75-4.69a.09.09 0 00-.15.08"/><path class="cls-3" d="M20.41 73.7c2.25 1.71 6.67 1.47 9.33 1.25 2.93-.25 6.75-.72 9.19-2.46a.24.24 0 00-.18-.43c-1.47.23-2.89.86-4.35 1.2a27.78 27.78 0 01-5.3.69 32.32 32.32 0 01-4.51-.12 16.24 16.24 0 00-4.16-.33c-.1 0-.09.15 0 .2M34.2 21a.83.83 0 01-.35-.29l-.14-.18c0-.06-.08-.07-.13-.13s-.07 0-.06 0 0 .13.07.23a.9.9 0 00.16.18 2.78 2.78 0 00.42.22s.06-.05 0-.07"/><path class="cls-3" d="M33.4 20.66c3.71 1.36 7.27 2.45 10.51 4.81a26.07 26.07 0 014.36 4c1.27 1.44 2.17 3.1 3.34 4.6.09.13.31 0 .26-.16-1.21-3.48-4.53-6.66-7.4-8.83-3.08-2.32-7.11-4.48-11-4.59a.1.1 0 000 .2"/><path class="cls-3" d="M51.29 33.46c.78 2 1.8 3.81 2.43 5.85a28.56 28.56 0 011.23 7A29.71 29.71 0 0152.22 60c-.06.15.13.27.21.13a25.05 25.05 0 003.22-13.81c-.2-4.31-1.38-9.6-4.29-12.94h-.07"/><path class="cls-3" d="M53 58.9c.08-.17.17-.34.26-.5a.21.21 0 00-.36-.21c-3.8 6.61-8.82 12.12-16.25 14.53-.12 0-.15.25 0 .27 3.51.62 7.41-2.81 9.78-5.08a28.48 28.48 0 006.85-9.56h-.4l.09.55"/><path class="cls-3" d="M30.39 74.33a15.26 15.26 0 005.34-.33c1.68-.36 3.69-.79 5-2a.15.15 0 00-.14-.25c-1.61.34-3.08 1.25-4.68 1.69a34 34 0 01-5.51.77c-.06 0-.09.11 0 .12m-.22-51.69c-6-1.56-13.2 1.31-17.76 5.11a23.79 23.79 0 00-5.91 7.35C5.13 37.75 3.74 41.24 4 44.28a.33.33 0 00.65.09c.79-3 1.08-5.78 2.47-8.59a23.25 23.25 0 015.39-7.14A23.08 23.08 0 0121 23.91c3-.94 6.06-1 9.19-1.22v-.05m-26 23.45c-.88 4.52.67 9.56 2.95 13.45A24.83 24.83 0 0011.48 65c1.6 1.53 3.68 3.36 5.89 3.84.24.05.46-.25.26-.44-1.57-1.39-3.49-2.32-5.06-3.75a24.1 24.1 0 01-4.44-5.42c-2.48-4.14-3.28-8.45-3.78-13.16 0-.08-.14-.12-.16 0"/><path class="cls-3" d="M16.38 68c1.21 1.69 3.5 2.36 5.43 2.82a25.18 25.18 0 007.08.61 27.94 27.94 0 007-1.28c2.06-.66 4.61-1.51 6.15-3.09a.25.25 0 00-.24-.41c-2 .54-3.9 1.73-5.9 2.4a27.59 27.59 0 01-6.73 1.33 24.5 24.5 0 01-6.51-.41 39.42 39.42 0 01-6.12-2.19c-.12 0-.26.12-.18.22m14.51-44.83a28.17 28.17 0 0114.94 8.22 25 25 0 014.78 7.89c1 2.74 1.26 5.53 1.92 8.35.05.21.41.23.44 0 .89-5.79-2.63-12.42-6.36-16.61a24.34 24.34 0 00-15.68-8.15.15.15 0 000 .3"/><path class="cls-3" d="M52.27 47c-.69 1.58-.49 3.58-.91 5.27a26.19 26.19 0 01-2.2 5.94 23.84 23.84 0 01-3.67 5.18c-1.36 1.44-3.08 2.48-4.41 3.93a.2.2 0 00.19.34c3.83-1.05 7.11-5.53 8.86-8.88a21.63 21.63 0 002.22-6.24c.3-1.67.81-4 0-5.54a.06.06 0 00-.09 0m-48-4.37a14.76 14.76 0 00-.16 6.61h.1a31.29 31.29 0 01.15-6.56c0-.06-.08-.09-.09 0"/><path class="cls-3" d="M4.19 41.91A53.2 53.2 0 004 48.47c0 .05.07.05.08 0a53.18 53.18 0 00.17-6.56m.38 1.45a19.75 19.75 0 00-.2 5.48h.05c.06-1.83.07-3.64.19-5.47"/><path class="cls-3" d="M4.17 42.25A28.26 28.26 0 004 50.86c0 .06.1 0 .1 0a52.42 52.42 0 01.15-8.59s-.08-.06-.08 0m48.53 4.2c-.11 1.34-.34 2.67-.48 4h.08a14.6 14.6 0 00.43-4"/><path class="cls-3" d="M53 46c-.19 1.59-.49 3.14-.72 4.72h.07a15.81 15.81 0 00.73-4.72"/><path class="cls-3" d="M52.83 47c-.07 1.53-.31 3-.49 4.49 0 .05.06.05.07 0a11.06 11.06 0 00.48-4.5h-.06m-1.27-3.92a28.47 28.47 0 01.35 5.83c0 .05.07.06.08 0a12.14 12.14 0 00-.37-5.86h-.06M2.52 56.9a17.82 17.82 0 005.29 8.75.06.06 0 10.08-.08 23.62 23.62 0 01-5.35-8.67m42.82 8.17C39.93 69.26 32 73.15 25 71.06c-.07 0-.11.08-.05.11 3.09 1.51 7.55.4 10.66-.58a25.72 25.72 0 009.75-5.5"/><path class="cls-3" d="M46.67 61.89A41.72 41.72 0 0139 68.34v.06a24.11 24.11 0 007.64-6.49M4.72 37.33C1.91 46 2.37 57.64 9.49 64.25a.09.09 0 00.12-.12 26.39 26.39 0 01-5.76-11.82c-1-5-.29-10.05.88-15m.36-.82c2-3.24 3.71-6.28 6.67-8.81A26.38 26.38 0 0122 22.39a.09.09 0 10-.05-.17 24.07 24.07 0 00-10.16 5.13c-2.74 2.3-5.7 5.65-6.74 9.12M10.35 65a21 21 0 0016.41 6.91v-.09a22.7 22.7 0 01-16.35-6.89l-.06.07"/><path class="cls-3" d="M14.82 67a4.21 4.21 0 00-.39 1.34h.08a2.29 2.29 0 00.22-.62q.11-.36.18-.72c0-.06-.06-.08-.09 0m.62.49a3.52 3.52 0 00-.2.6 1.68 1.68 0 00-.12.63h.09a1.62 1.62 0 00.19-.6 4.58 4.58 0 00.1-.63s-.05-.05-.06 0m.7.37a5.42 5.42 0 00-.37 1.35c0 .05.06.06.09 0a5 5 0 00.41-1.33c0-.08-.1-.12-.13 0m.61.34a2.87 2.87 0 00-.18 1.11.05.05 0 00.09 0 2.78 2.78 0 00.21-1.11c0-.07-.1-.08-.12 0m.63.38a3.27 3.27 0 00-.18 1.11.06.06 0 00.11 0 3.48 3.48 0 00.13-1.12h-.06m.71.49c0 .18-.08.36-.12.55a.93.93 0 000 .44h.09a.88.88 0 00.1-.43c0-.19 0-.38.05-.56s-.07 0-.08 0m.69.6a1.67 1.67 0 00-.14.75h.08a1.67 1.67 0 00.16-.74c0-.06-.09-.07-.1 0m.82.09c-.12.21-.29.59-.08.8h.08a1.07 1.07 0 000-.31 1.29 1.29 0 01.07-.43s0-.09-.07 0m1.1.22a1.5 1.5 0 000 .76.06.06 0 00.1 0 1.5 1.5 0 000-.76.06.06 0 00-.12 0m.75.24a4.19 4.19 0 000 .5.81.81 0 000 .38.06.06 0 00.1 0 .8.8 0 000-.38 4.19 4.19 0 000-.5.06.06 0 10-.12 0m1.01.25a2 2 0 000 .74h.08a1.84 1.84 0 000-.74h-.08m.97.12v.56a.93.93 0 000 .44h.09a.93.93 0 000-.44v-.56h-.09m.84.33c-.13.24-.28.66-.1.91a.05.05 0 00.09 0 2.55 2.55 0 000-.39 1.8 1.8 0 01.1-.46c0-.07-.08-.11-.11 0M25.4 71a1.72 1.72 0 00-.15.74h.07a1.69 1.69 0 00.15-.74h-.07m.68-.07a1 1 0 010 .43 1 1 0 00-.06.29s0 .06.06 0c.25-.14.2-.56.13-.79a.06.06 0 00-.12 0m.73.05v.5a1 1 0 000 .38.06.06 0 00.1 0 1 1 0 000-.38v-.5a.06.06 0 00-.12 0m1.61.25a1.47 1.47 0 000 .75h.08a1.47 1.47 0 000-.75c0-.07-.09-.07-.1 0m.75 0a1.47 1.47 0 000 .75h.08a1.47 1.47 0 000-.75c0-.07-.09-.07-.1 0m1.03-.16a.53.53 0 00.11.65 1.23 1.23 0 01-.1-.6h-.05m1.34-.38a2 2 0 000 .74h.08a1.84 1.84 0 000-.74.05.05 0 10-.1 0m.91.38l.12.11-.1-.16m-9.87-48.68a26.05 26.05 0 0122.25 6.41c.1.08.24-.06.15-.15a25.26 25.26 0 00-22.42-6.33v.07M45.3 29c4.33 3.51 7.74 9.67 7.85 15.28 0 0 .07.06.08 0 .42-2.94-1.08-5.92-2.37-8.48a18.12 18.12 0 00-5.49-6.89s-.11.05-.07.08m7.97 16.14a40 40 0 01-1.79 10.06h.06a20.36 20.36 0 001.74-10.09"/><path class="cls-3" d="M53.39 44.4a30.88 30.88 0 01-.39 5.84h.06a11.22 11.22 0 00.36-5.86M4.74 32.72a7.72 7.72 0 001 .69 5.67 5.67 0 001 .61v-.06a4.93 4.93 0 00-.92-.65 8.21 8.21 0 00-1.1-.66v.07m.15-.61c.79.43 1.51.93 2.27 1.41.06 0 .13-.05.08-.1A7.21 7.21 0 004.9 32s-.07 0 0 .08m.21-.69a13.91 13.91 0 001.16.86 9.93 9.93 0 001.36.89l.06-.07a9.06 9.06 0 00-1.18-.85 15.07 15.07 0 00-1.37-.87m.58-.35A24.42 24.42 0 008 32.42s.09 0 0-.06a8.39 8.39 0 00-2.26-1.45c-.06 0-.12.06-.06.1m.4-.62a4.65 4.65 0 001 .63c.4.23.76.52 1.16.73a.06.06 0 00.07-.1 4.54 4.54 0 00-1.11-.83 2.47 2.47 0 00-1.14-.49v.06m.47-1.12a11.66 11.66 0 002.58 1.44s.06-.05 0-.07a25.86 25.86 0 00-2.56-1.45v.08m.71-.5a13.28 13.28 0 002.56 1.58s.1 0 .06-.07a13.57 13.57 0 00-2.58-1.57s-.07 0 0 .06m.59-.77a27.37 27.37 0 012.17 1.84s.1 0 .07-.06A5.33 5.33 0 007.92 28s-.06 0 0 .05m.83-.57a5.92 5.92 0 00.83.75c.3.28.54.61.83.9 0 0 .1 0 .08-.07a3.44 3.44 0 00-.77-1 2.25 2.25 0 00-.94-.65M39.9 68.79a1.42 1.42 0 01.27.5c.09.19.19.38.29.57a4.56 4.56 0 00.57 1h.06a3.57 3.57 0 00-.4-.89 9.93 9.93 0 00-.57-1.07c-.06-.1-.28-.31-.29-.06m.54-.47a10.3 10.3 0 001.08 1.95h.06a11.74 11.74 0 00-1-2c0-.06-.12 0-.09.06m.58-.28a4.7 4.7 0 001.35 2.06h.06c-.22-.35-.49-.66-.72-1s-.41-.71-.63-1H41m.7-.89c.24.42.48.85.73 1.26a5.17 5.17 0 00.71 1.08h.06a5.82 5.82 0 00-.64-1.11c-.26-.42-.53-.82-.8-1.22h-.06m.59-.48a12 12 0 001.49 2.42 12 12 0 00-1.47-2.43c0-.05-.09 0-.07 0m.65-.72c.29.43.57.87.83 1.32s.46.93.76 1.35h.07A10.25 10.25 0 0043 66h-.09m.73-.19a14.56 14.56 0 001.78 2.73s.08 0 .06-.05a15.1 15.1 0 00-1.77-2.72h-.07m.72-.56a14.5 14.5 0 001.73 2.31h.06a14.72 14.72 0 00-1.73-2.3h-.06m.35-.72a14 14 0 001.07 1.24A11.06 11.06 0 0047 67h.06A10.45 10.45 0 0046 65.76c-.41-.44-.82-.9-1.27-1.3 0 0-.08 0 0 0m.76-.38c.35.33.74.61 1.08.94s.62.72 1 1.06h.07a4.51 4.51 0 00-.92-1.12 5.07 5.07 0 00-1.19-.96s-.06 0 0 0m.71-.42c.32.35.69.65 1 1s.63.71 1 1h.06a5.78 5.78 0 00-2-2s-.05 0 0 0m.38-.68c.29.26.6.48.88.76s.52.58.8.85c0 0 .1 0 .08-.06a4.13 4.13 0 00-1.69-1.65c-.06 0-.13.05-.07.1m-6 3.97A28.11 28.11 0 0045 64.15s0-.09-.06-.07a27.26 27.26 0 00-4.36 2.7.05.05 0 00.06.09"/><path class="cls-3" d="M53.18 49.51a18.68 18.68 0 00-.8 3.28c0 .05.06.05.08 0a19 19 0 00.74-3.28M38.86 69.1a8.91 8.91 0 00.5 1.51 5.76 5.76 0 00.53 1.28h.1a6 6 0 00-.45-1.42 8.52 8.52 0 00-.56-1.4.07.07 0 00-.12 0m-1.04.02c.11.53.29 1 .44 1.57a9.63 9.63 0 00.41 1.34h.07a9 9 0 00-.84-3h-.08m9.72-6.71c.37.31.73.64 1.08 1s.61.64 1 .91c0 0 .1 0 .07-.07a8.76 8.76 0 00-2.07-1.86s-.08 0 0 .06m.38-.84c.8.52 1.52 1.18 2.33 1.67a.06.06 0 00.07-.09 8.51 8.51 0 00-2.35-1.67s-.1.05 0 .09m.6-.8a5.86 5.86 0 001.1.87 8.37 8.37 0 001.32.87s.1 0 .06-.08a8.88 8.88 0 00-1.2-.92 6.3 6.3 0 00-1.26-.78M9.81 26.55a13.49 13.49 0 001.77 2.15s.06 0 0 0a14.36 14.36 0 00-1.7-2.2c-.05-.06-.16 0-.11.09m.68-1.04a12.68 12.68 0 00.9 1.18 9.78 9.78 0 001 1.28s.06 0 0 0a6.32 6.32 0 00-.83-1.23 10.68 10.68 0 00-1.07-1.25s-.1 0-.07.05m1.27-.58a7.16 7.16 0 00.8 1.25 6.38 6.38 0 00.81 1.05s.1 0 .07-.05a6.34 6.34 0 00-.82-1.25 7.5 7.5 0 00-.82-1s-.06 0 0 0M3.9 33.7c.84.59 1.64 1.22 2.51 1.77.06 0 .11-.06.06-.1-.83-.61-1.71-1.13-2.56-1.69m-.78 1.06a8.06 8.06 0 001.59.84 8.07 8.07 0 001.48.57v-.09a15.88 15.88 0 00-1.63-.73 11.75 11.75 0 00-1.47-.62m-.44 1a15.13 15.13 0 011.66.72c.48.25.9.58 1.37.84a.06.06 0 00.08-.1 6.4 6.4 0 00-3.09-1.53v.07m-.27 1.08c.51.23 1 .4 1.55.63s.89.47 1.35.64a.07.07 0 00.06-.06 6.9 6.9 0 00-2.92-1.27c-.06 0-.11.08 0 .11M44.9 29l.26-.2-.16-.1a2.56 2.56 0 00-.1.48 1.1 1.1 0 000 .4.07.07 0 00.13 0 1.08 1.08 0 00.1-.43 2.32 2.32 0 00.06-.45.08.08 0 00-.14 0c-.08.07-.14.16-.22.24s0 .11.07.07m.79.06a4.25 4.25 0 00-.12.62 1.2 1.2 0 000 .5.06.06 0 00.11 0 1.38 1.38 0 00.1-.49 4.48 4.48 0 00.06-.63.06.06 0 00-.11 0m.77.57q-.14.3-.24.6a1 1 0 00-.13.54h.08a1.15 1.15 0 00.23-.47c.07-.21.14-.42.19-.63a.07.07 0 00-.13-.06m.7.79a5 5 0 00-.4.51 1.52 1.52 0 00-.3.56.05.05 0 00.08.06 1.3 1.3 0 00.35-.45c.12-.21.23-.41.33-.63 0 0 0-.09-.06-.05m.43.83c-.12.18-.27.34-.39.53a1 1 0 00-.24.46c0 .05 0 .08.09.06a1.13 1.13 0 00.31-.43c.11-.19.19-.39.29-.58h-.06m.6.72c-.12.16-.23.33-.35.5a1.54 1.54 0 00-.26.49s0 .09.09.06a1.43 1.43 0 00.29-.45c.11-.19.22-.38.32-.57a.06.06 0 00-.11-.06m.5.97c-.08.15-.17.31-.24.47a1 1 0 00-.14.4.05.05 0 00.09 0 1 1 0 00.21-.37c.06-.17.13-.33.18-.5s-.07-.1-.1 0m.78.87a5.22 5.22 0 00-.24.54 1.45 1.45 0 00-.17.57s.07.08.1 0a1.74 1.74 0 00.22-.48c.07-.21.14-.42.19-.63s-.07-.11-.1 0m.6.85a2.57 2.57 0 00-.3 1.23.05.05 0 00.09 0 2.61 2.61 0 00.28-1.23s-.06-.06-.07 0m.61.86c-.07.21-.13.42-.19.64a2.87 2.87 0 00-.11.57c0 .05.07.07.09 0a2.6 2.6 0 00.17-.56c.05-.22.1-.43.14-.66a.05.05 0 00-.1 0m.45.99a2.84 2.84 0 01-.06.71c0 .21-.15.4-.19.61a.07.07 0 00.11.06 1.66 1.66 0 00.23-1.39h-.09m.4.97a4 4 0 010 .91 7.31 7.31 0 00-.18.78h.08a2 2 0 00.22-1.74.06.06 0 00-.11 0m.44 1.15a3.86 3.86 0 00-.23 1.71c0 .06.08 0 .1 0a3.42 3.42 0 00.11-.79c0-.31.07-.61.1-.91H52m.39.95a10.41 10.41 0 00-.21 2.08c0 .11.18.14.2 0a10.43 10.43 0 00.11-2.09c0-.06-.09-.07-.1 0m.26 1.12a6.21 6.21 0 01.14 1.29c0 .38-.11.75-.14 1.13a.09.09 0 00.17.05 3.43 3.43 0 000-2.5c0-.08-.15-.05-.13 0"/><path class="cls-3" d="M53.1 41.83a10 10 0 00-.16 2.84c0 .1.16.06.17 0 .11-.91.06-1.86.14-2.79 0-.09-.14-.11-.15 0"/><path class="cls-3" d="M53.09 42.47a27.26 27.26 0 01.34 4.12.06.06 0 00.12 0 7.75 7.75 0 00-.38-4.15h-.08M4.17 54.38a3.86 3.86 0 00.49-.1.64.64 0 00.34-.14v-.08a.75.75 0 00-.39 0 3.68 3.68 0 00-.47.15.07.07 0 000 .13m.52.82l.21-.08.34-.15a2.74 2.74 0 00.53-.16v-.09a.84.84 0 00-.6.08l-.25.13a1.34 1.34 0 00-.25.23s0 .05 0 0m.5 1.49l.26-.07.18-.07a1.42 1.42 0 00.42-.23.05.05 0 000-.09 1.23 1.23 0 00-.39.16l-.22.12c-.08 0-.16.13-.23.17m.35 1.61a4.23 4.23 0 001.09-.64v-.07a4 4 0 00-1.08.64v.07m.85 1.22l.5-.31c.13-.09.31-.17.38-.32a.06.06 0 00-.06-.09.85.85 0 00-.43.22l-.48.35c-.09.07 0 .21.09.15m.49 1.23a5.77 5.77 0 00.56-.27c.14-.07.35-.13.41-.28s0-.08 0-.08-.31.09-.46.16-.38.2-.57.32a.09.09 0 00.09.15m.55.72a1.92 1.92 0 00.55-.2 1.44 1.44 0 00.56-.33.05.05 0 000-.09A1.26 1.26 0 008 61a2 2 0 00-.55.35v.05m.85.8a2.72 2.72 0 00.86-.64s0-.08-.06-.07a1.41 1.41 0 00-.45.28l-.41.35c-.05 0 0 .1.06.08m.36.8a1.7 1.7 0 001-.66s0-.08-.05-.06-.31.23-.47.33a3.6 3.6 0 01-.5.29c-.06 0 0 .12 0 .1m.52.78a4.07 4.07 0 00.74-.87s0-.1-.07-.07a4.16 4.16 0 00-.75.87s0 .11.08.07m-5.5-10.42a2.08 2.08 0 001-.17.05.05 0 000-.1 2.28 2.28 0 00-1 .15.06.06 0 000 .12m-.12-.72a2 2 0 001.37-.42v-.11a2.94 2.94 0 00-.62.24 5.88 5.88 0 01-.71.23v.06m.09-.88a1.82 1.82 0 00.88-.27v-.1a1.89 1.89 0 00-.87.21.08.08 0 100 .16m-.26-1.14a1.13 1.13 0 01.45-.14c.11 0 .24 0 .31-.07a.06.06 0 000-.08c-.07-.14-.27-.09-.39-.06a.8.8 0 00-.23.1 1.19 1.19 0 00-.19.2s0 .08 0 0m.17-1.16h.08a1.16 1.16 0 00.18 0 2 2 0 00.35 0s.07-.06 0-.09a.35.35 0 00-.36-.11.83.83 0 00-.21.06c-.07 0-.07.09-.13.13s0 .1 0 .08M12.38 17c-.73 2.88-1.27 5.77-2.15 8.61-.05.14.17.2.21.06a36.35 36.35 0 002-8.66"/><path class="cls-3" d="M13 16.78c-.69 2.85-1.4 5.6-2.3 8.39 0 .09.11.16.15.07A29.14 29.14 0 0013 16.79s-.06-.05-.07 0"/><path class="cls-3" d="M13.84 16.36a3.54 3.54 0 00-.95.37 3.25 3.25 0 00-.87.54s0 .1.05.08a5.71 5.71 0 00.85-.44 7.73 7.73 0 00.95-.49v-.06m.41 4.45c0 .78-.07 1.53-.12 2.31a.06.06 0 00.11 0 6 6 0 00.15-2.32c0-.09-.14-.1-.14 0m-.28.13a10 10 0 00-.3 2.43h.06a10 10 0 00.24-2.43m27-4.62a21.14 21.14 0 00.07 3.69 15.8 15.8 0 00.35 3.22c0 .08.13.06.14 0a23.35 23.35 0 00-.22-3.73A23 23 0 0041 16.3"/><path class="cls-3" d="M40.94 16.07c-.27 2.26.21 4.78.37 7.05 0 .31.5.31.47 0-.19-2.28-.11-4.86-.75-7.07 0-.05-.08 0-.09 0"/><path class="cls-3" d="M40.72 16.08a3.31 3.31 0 001.38 1 3.53 3.53 0 001.68.5.12.12 0 00.06-.22 9.33 9.33 0 00-1.64-.65 8.11 8.11 0 00-1.44-.71s-.06 0 0 .06m3.16 1.32a25.8 25.8 0 001.18 5.17 29.45 29.45 0 001.66 5c.09.18.34.05.3-.12-.35-1.71-1-3.37-1.52-5a48.06 48.06 0 00-1.45-5.06c0-.08-.17-.09-.17 0"/><path class="cls-3" d="M43.76 17.54a1.18 1.18 0 00.46.91c.06 0 .15 0 .14-.07a1.33 1.33 0 00-.17-.43c-.08-.15-.13-.32-.22-.47a.11.11 0 00-.21.06m-10.93 2.62c2.5.3 5.05.23 7.56.32.35 0 .35-.54 0-.55a65.75 65.75 0 00-7.56 0 .14.14 0 000 .27"/><path class="cls-3" d="M34.39 20.71a15.5 15.5 0 002.89.11 26.57 26.57 0 003.34-.09.24.24 0 000-.47 28.64 28.64 0 00-3.34 0 15.56 15.56 0 00-2.89.21.12.12 0 000 .23m2.68-15.34a14.63 14.63 0 00-.27-1.74c0-.09-.17-.07-.16 0a9.8 9.8 0 00.23 2.48.07.07 0 00.13 0 9.85 9.85 0 00-.19-2.48h-.17a14.17 14.17 0 00.28 1.71.08.08 0 00.15 0"/><path class="cls-3" d="M36.93 4.15v.32h.15c.07-.53-.14-1.08.18-1.58a.92.92 0 01.56-.39 1.94 1.94 0 01.59 0c.07 0 .09-.06.07-.11-.22-.52-1-.16-1.31.13a1.93 1.93 0 00-.23 1.94c0 .08.16 0 .13-.06L37 4.14h-.08"/><path class="cls-3" d="M38.39 2.34c1.06.81.87 2.93 1 4.14s.29 2.55.44 3.83a59 59 0 00.89 6.69.14.14 0 00.28 0 76.69 76.69 0 00-1.1-9.4c-.17-1.28-.29-2.59-.53-3.86-.13-.71-.22-1.17-.9-1.46a.08.08 0 00-.08.14M33.2 17.23a13.53 13.53 0 004.8-.05c.19 0 .15-.36-.05-.34-1.57.14-3.17.11-4.73.29a.05.05 0 000 .1"/><path class="cls-3" d="M32.23 17.26a18.82 18.82 0 003.27-.05 20.63 20.63 0 002.84-.21c.12 0 .08-.19 0-.19a25.51 25.51 0 00-3.27.09 17.81 17.81 0 00-2.83.23c-.07 0 0 .11 0 .11m-12.66 2.45c7 .25 14.06-.21 21-.37a.18.18 0 100-.36c-7 .14-14.07 0-21 .51a.11.11 0 000 .22m21.73-3.25c.23 1.22.32 2.44.52 3.65h.05a10.08 10.08 0 00-.47-3.66c0-.07-.12 0-.1 0m.62.37a12.47 12.47 0 00.33 3.2.06.06 0 00.12 0 12.61 12.61 0 00-.38-3.21m.42.49a10.62 10.62 0 00.35 2.72c0 .08.14.06.13 0a10.13 10.13 0 00-.42-2.68h-.06m.47-.04a14.72 14.72 0 00.46 2.57h.06a15 15 0 00-.41-2.58c0-.06-.12-.05-.11 0m.38.02a84.12 84.12 0 002.29 9 .07.07 0 10.14 0c-.76-3-1.6-6-2.34-9 0-.06-.1 0-.09 0m-29.86-1.01a8.8 8.8 0 00-.61 3.44s.07.06.08 0c.16-.59.19-1.23.3-1.83s.25-1.06.32-1.6c0-.06-.07-.06-.09 0m.33-.23a13.27 13.27 0 00-.59 3.9 36.64 36.64 0 00.57-3.9m.45 1.09a7.71 7.71 0 00-.41 2.33h.06c.18-.75.25-1.56.37-2.33m4.44-14.46c0 4.05 0 8.1.06 12.16a.1.1 0 00.19 0 112.14 112.14 0 00-.18-12.16h-.07m.17 12.89a4.17 4.17 0 000 1 .08.08 0 00.16 0 4.17 4.17 0 000-1 .06.06 0 00-.11 0m.26-12.38a21.43 21.43 0 017.68-2.14 19.32 19.32 0 017.29 1.23c.07 0 .13-.09.05-.13-4.52-2-10.9-1.89-15.05 1"/><path class="cls-3" d="M35.58 3.54c.23 4.44.4 9 1 13.39 0 .09.15.07.15 0-.08-4.43-.62-9-1.08-13.37h-.08M19.22 16.44c2.77.1 5.56-.06 8.33-.1s5.57 0 8.33-.19a.08.08 0 000-.15c-2.76-.12-5.57.07-8.33.14s-5.57 0-8.33.21v.09"/><path class="cls-3" d="M19.58 16.31a5.83 5.83 0 00-.64 1.07 6.2 6.2 0 00.67-1.07h-.08m1.15-.13a1.64 1.64 0 00-.48.5.9.9 0 00-.17.61h.07a4.5 4.5 0 00.22-.55 1.87 1.87 0 01.39-.53s0-.06 0 0m1.29-.03a1.21 1.21 0 00-.68.83 3.47 3.47 0 01.69-.79v-.06m1.05-.16c-.14.16-.29.3-.43.46a1.54 1.54 0 00-.3.42h.06a1.49 1.49 0 00.37-.42c.12-.15.22-.32.33-.47m.73.06c-.16.16-.31.33-.45.5a1.42 1.42 0 00-.32.46.05.05 0 00.07.06 1.67 1.67 0 00.37-.42c.13-.19.26-.37.38-.57h-.05m9.47-.17a2.28 2.28 0 00-.74 1.09s0 .07.07 0a3.77 3.77 0 00.34-.54c.13-.19.27-.37.41-.56s0-.09-.08-.06m1.36.08a1.67 1.67 0 00-.61.51 1.11 1.11 0 00-.3.72s0 .07.07 0a5.07 5.07 0 00.34-.61 3.06 3.06 0 01.54-.6v-.05m.77.11a2.4 2.4 0 00-.73 1c0 .08.09.11.13 0a4.94 4.94 0 00.3-.49c.12-.17.25-.34.38-.5s0-.13-.08-.08m.77-.13a5.4 5.4 0 00-.43.52 1.88 1.88 0 00-.34.58s0 .06.06 0a1.45 1.45 0 00.39-.46 3.64 3.64 0 00.38-.63s0-.09-.06 0m.31.19c-.15.32-.4.57-.56.88L36 17a1.42 1.42 0 00.6-.9c0-.05-.07-.09-.1 0M19.2 3.05c-.18 4.05-.05 8.23.08 12.28a.1.1 0 10.2 0 68.08 68.08 0 00-.23-12.28h-.05"/><path class="cls-3" d="M19.54 2.93c.09 4 0 8 .18 11.92 0 .1.15.1.16 0a59.39 59.39 0 00-.24-11.92c0-.06-.11-.07-.1 0m.53.61"/><path class="cls-3" d="M19.91 2.8a15.08 15.08 0 00.17 5.36h.06C20 6.36 20 4.61 20 2.81c0 0-.06-.05-.06 0m.32-.24c0 2.14 0 4.31.14 6.44 0 .07.11.07.11 0 0-2.14-.07-4.3-.2-6.44m.61-.37a24.4 24.4 0 00.41 6.33h.08c-.08-2.1-.33-4.21-.44-6.32m.49-.21a56.41 56.41 0 00.16 6h.07a51.52 51.52 0 00-.17-6h-.06m.65-.28a45.81 45.81 0 000 6.2h.09a44.23 44.23 0 000-6.2h-.05m-1.61 10.33a31.88 31.88 0 000 4.26s.07.05.07 0a31.88 31.88 0 000-4.26m.54.25a12.38 12.38 0 00.11 3.89h.06c0-1.3-.13-2.6-.12-3.89h-.05m.53.24a18.1 18.1 0 00.2 3.53c0 .05.07 0 .07 0a18.89 18.89 0 00-.24-3.52m.51-.01c.06 1.13 0 2.28.12 3.4 0 0 .05.05.06 0a9.38 9.38 0 00-.13-3.42h-.05m.63.02c0 1.13-.1 2.28 0 3.4h.05c.09-1.12 0-2.27 0-3.4m.4.46a16.72 16.72 0 00.18 3h.05a16.69 16.69 0 00-.13-3 .05.05 0 10-.1 0m.45.4c.05.42.09.84.1 1.27s-.08.85-.07 1.27c0 .06.08.07.09 0a5.13 5.13 0 000-2.58c0-.06-.11-.05-.11 0m.44.88a3.47 3.47 0 010 1.57s0 .06.06 0a2.09 2.09 0 000-1.61h-.06m.46.27c-.05.23-.07.46-.1.68a2.24 2.24 0 000 .68h.06a1.92 1.92 0 00.11-.58c0-.26.06-.52.07-.77 0-.06-.09-.08-.1 0m.2.24a4.48 4.48 0 00-.14 1.1h.07a5.16 5.16 0 00.18-1.1c0-.06-.1-.08-.11 0M34 2.08a8.1 8.1 0 00.23 2.31h.07a8.18 8.18 0 00-.19-2.31.06.06 0 00-.11 0m.15 3.04a76.59 76.59 0 00.34 10.82c0 .1.15.11.15 0 .1-3.56-.22-7.26-.44-10.82h-.05m.92 3.16a53.75 53.75 0 00.09 7.18h.05a53.77 53.77 0 00-.07-7.18h-.07m.34.6a63.63 63.63 0 00.69 7.19c0 .05.07 0 .07 0a44.51 44.51 0 00-.65-7.2c0-.07-.12 0-.11 0m-1.07-6.42a9.17 9.17 0 00.19 1.65 14.5 14.5 0 00.35 1.9.06.06 0 00.12 0 11.45 11.45 0 00-.21-1.65 9.91 9.91 0 00-.36-1.88h-.08m.43-.19a12.56 12.56 0 01.13 2 10.7 10.7 0 00.19 1.88c0 .08.12 0 .13 0a12.18 12.18 0 00-.1-2.17c0-.26 0-1.49-.18-1.69s-.25-.15-.24 0"/><path class="cls-3" d="M35.2 2.69a27.54 27.54 0 00.14 3.4c0 .06.09.08.1 0a8.62 8.62 0 00-.14-3.43c0-.06-.09 0-.1 0M34.26 2a13.85 13.85 0 00.45 3.79c0 .07.11 0 .12 0A14.2 14.2 0 0034.35 2h-.09m1.42.93c0 .51.08 1 .08 1.52s-.09 1-.1 1.52a.06.06 0 00.12 0 5.4 5.4 0 000-3.06c0-.06-.12 0-.12 0"/><path class="cls-3" d="M34.41 3.42a14.91 14.91 0 00.13 1.63c0 .55 0 1.11.07 1.65 0 0 .09.08.1 0a6.32 6.32 0 00-.28-3.31"/><path class="cls-3" d="M34.42 2.79a10.87 10.87 0 00.26 4.54.05.05 0 00.1 0c-.09-1.51-.19-3-.27-4.51 0-.06-.08-.07-.09 0"/><path class="cls-3" d="M34.34 2a35 35 0 00.5 5A.06.06 0 0035 7a35 35 0 00-.49-5c0-.07-.14-.05-.13 0m-.48-.28a21.85 21.85 0 00.28 4.64h.1c0-1.53-.17-3.09-.28-4.62a.05.05 0 10-.1 0m-.53-.14c.12 2.83.28 5.67.39 8.51 0 .07.12.07.12 0 0-2.84-.14-5.69-.4-8.51 0-.07-.11-.07-.11 0"/><path class="cls-3" d="M19.13 4.07a13 13 0 017.79-2.46c2.68 0 6 .4 8.36 1.81 0 0 .09 0 0-.06-2-1.69-5.89-1.82-8.41-1.84-2.71 0-5.82.53-7.8 2.53m.39 11.53a152.9 152.9 0 0015.44-.35c.1 0 .1-.16 0-.15l-15.44.34a.08.08 0 000 .16M16.63 2.91A92 92 0 0015.41 19c0 .13.19.12.2 0 .23-5.36.91-10.73 1.05-16.07m20.64.24c.21 4.7.76 9.44 1.29 14.11 0 .12.2.13.19 0-.36-4.69-.71-9.46-1.39-14.12 0-.05-.1 0-.09 0"/><path class="cls-3" d="M37.46 3.41A5.41 5.41 0 0036.8 5h.06a5.29 5.29 0 00.66-1.57h-.06m.08 1.65a1.79 1.79 0 00-.47 1.14h.06a5.3 5.3 0 01.5-1.08c0-.05-.05-.12-.09-.07"/><path class="cls-3" d="M37.45 3.88a1 1 0 01.24-.8 1.41 1.41 0 01.63-.38v-.07c-.65-.08-1.05.72-.91 1.26h.05M17.64 3a.83.83 0 00-.47 0 1.41 1.41 0 00-.42.26.9.9 0 00-.3.87h.05a1.16 1.16 0 011.14-1.07m-1.97 16.51a5 5 0 00-.76.83s0 .05 0 0a5.29 5.29 0 00.74-.83s0-.05 0 0m1.01-.12a1.57 1.57 0 00-.64.86h.05a8.53 8.53 0 01.62-.83v-.05m1.06.02c-.3.17-.72.49-.77.86h.06c.11-.12.18-.29.29-.43a2.12 2.12 0 01.44-.41v-.05m1.03.12l-.39.39a1.61 1.61 0 00-.31.38s0 .06 0 0a1.61 1.61 0 00.4-.31l.37-.41c0-.05 0-.11-.07-.07m1.43-.14a5.74 5.74 0 00-1 1 6 6 0 001-1s0-.06 0 0m.77.19a2.44 2.44 0 00-.46.39 1.21 1.21 0 00-.31.47h.06c.14-.1.22-.29.34-.42a3.26 3.26 0 01.41-.42v-.06m1.57-.07a5 5 0 00-.75.84s0 .06 0 0a5 5 0 00.75-.84m9.91-.03c-.13.18-.35.41-.36.64a.05.05 0 00.08 0c.2-.11.31-.42.41-.61s-.08-.15-.13-.07m.53-.06c-.06.14-.12.28-.17.42a1.37 1.37 0 00-.12.44.05.05 0 00.1 0 1.38 1.38 0 00.15-.4l.12-.46s-.06-.07-.08 0m.95.13a4.52 4.52 0 00-.32.52 1.13 1.13 0 00-.2.45s0 .05.07 0a1.33 1.33 0 00.29-.47c.08-.17.16-.33.23-.5s0-.07-.07 0m1.12-.14a1.24 1.24 0 00-.51.88h.06c.08-.13.13-.28.21-.42a1.72 1.72 0 01.31-.4s0-.1-.07-.07m1.1-.23c-.12.14-.22.28-.33.43a1.29 1.29 0 00-.27.45h.05a1.19 1.19 0 00.31-.36c.11-.16.22-.33.32-.5s0-.11-.08-.06m1.46.05a2.51 2.51 0 00-.56.81h.06a2.86 2.86 0 00.56-.81h-.06m.83-.01c-.1.15-.18.3-.27.45A1.28 1.28 0 0038 20s0 .06.07 0a1.42 1.42 0 00.26-.38c.08-.15.17-.3.25-.46a.06.06 0 00-.1-.06m.76.11a2 2 0 01-.16.4c-.06.11-.17.2-.22.31s0 .12.09.09c.26-.12.37-.52.39-.78 0-.06-.09-.07-.1 0m.99-.02c-.11.14-.2.29-.3.43a1.2 1.2 0 00-.23.41s0 .09.08.06a1.19 1.19 0 00.26-.36c.1-.16.2-.32.29-.48a.06.06 0 00-.1-.06m.71-.13a7.83 7.83 0 00-.65 1.07c0 .09.08.16.13.08a7 7 0 00.58-1.11h-.07m.14.45a2.08 2.08 0 00-.38.74.06.06 0 00.11.06 2.24 2.24 0 00.37-.76c0-.06-.07-.09-.1 0m.25.32c-.17.13-.43.27-.51.48v.05c.21-.07.36-.33.49-.5s0-.05 0 0"/><path class="cls-3" d="M41.35 19.94a4.94 4.94 0 01-.49-.19.08.08 0 00-.08 0c-.09.13-.17.27-.25.39a.09.09 0 00.09.13c.21-.07.27.21.38.33a.07.07 0 00.11-.05c0-.27-.3-.56-.55-.44l.11.12.23-.4h-.08c.18 0 .35.07.52.12s.06-.06 0-.07M19.11 3.18v1.24a3.62 3.62 0 000 1.09.06.06 0 00.1 0 2.54 2.54 0 00.16-1.1 9 9 0 00-.06-1.27c0-.12-.2-.08-.2 0"/><path class="cls-3" d="M19.41 2.92a6.64 6.64 0 00-.09 1.41 4.81 4.81 0 00.06 1.42.08.08 0 00.16 0 4.81 4.81 0 00.06-1.42 6.64 6.64 0 00-.08-1.41.06.06 0 00-.11 0"/><path class="cls-3" d="M19.44 3.05c0 .46 0 .92.06 1.37a6.91 6.91 0 00.07 1.21.09.09 0 00.17 0A5.35 5.35 0 0019.57 3a.07.07 0 00-.13 0"/><path class="cls-3" d="M19.87 3.31a1.55 1.55 0 01.07-.31.1.1 0 10-.19 0 7.68 7.68 0 00.05 4 .07.07 0 00.13 0c0-.66-.08-1.32-.09-2s.08-1.32.11-2h-.2v.3s.08.06.09 0"/><path class="cls-3" d="M19.92 3.17a9.65 9.65 0 00-.15 4 .07.07 0 00.13 0c.05-.67 0-1.34.05-2a19.08 19.08 0 00.05-2c0-.05-.07-.06-.08 0m-.42-.07c.33-.1 2.05-1.1 2.2-.86a.07.07 0 00.13 0c0-.4-.31-.32-.56-.19a7.16 7.16 0 00-1.8 1"/><path class="cls-3" d="M19.47 3.59c.51-.21 1-.48 1.49-.71a9.92 9.92 0 001.68-.79c.05 0 0-.15 0-.14a4.83 4.83 0 00-1.64.59 8.44 8.44 0 00-1.62.94.07.07 0 00.06.11"/><path class="cls-3" d="M20.07 2.89a.56.56 0 00-.34 0c-.16 0-.07.27.08.2.61-.28 1.19-.6 1.82-.83a12.64 12.64 0 001.5-.52.1.1 0 00-.05-.19 4.59 4.59 0 00-1.76.49A7.87 7.87 0 0019.7 3l.15.15.23-.15v-.09"/><path class="cls-3" d="M21.16 2.53c-.23 0-.14 0-.34.05s-.07.21 0 .17a24.79 24.79 0 012.67-.93c.91-.25 1.85-.34 2.76-.59.09 0 .07-.16 0-.16a8.71 8.71 0 00-2.81.46A14.12 14.12 0 0022 2l-.38.16s-.75.48-.48.45v-.09m15.44 4.05a62 62 0 00.89 8.28h.07a62.33 62.33 0 00-.89-8.29h-.07M36.44 8a23.22 23.22 0 00.66 8.3c0 .06.14.05.13 0-.25-2.78-.58-5.49-.68-8.28 0-.07-.1-.07-.11 0"/><path class="cls-3" d="M36.71 11.92a16.87 16.87 0 00.06 5.4c0 .13.23.1.22 0-.11-1.79-.1-3.57-.19-5.36h-.09"/><path class="cls-3" d="M36.66 13.39a20.3 20.3 0 00.41 3.2c0 .11.21.08.2 0a20 20 0 00-.49-3.18.06.06 0 00-.12 0m.73 1.44a7.56 7.56 0 000 2 .05.05 0 00.1 0 8 8 0 000-2 .07.07 0 00-.14 0M15.83 92c-.25-3-.51-6.06-.75-9.08-.21-2.69.07-5.93-.74-8.5-.09-.26-.52-.31-.58 0-.5 2.74.22 6.08.45 8.85.26 3 .61 5.87 1.16 8.79.05.26.49.2.46-.06"/><path class="cls-3" d="M15.38 91.81c-.05.49.75.76 1.13.74a1.41 1.41 0 001.23-1 .29.29 0 00-.07-.25.17.17 0 00-.2 0c-.15.07-.16.15-.23.29a.92.92 0 01-.57.57 1.06 1.06 0 01-.74-.09c-.16-.09-.25-.23-.42-.27s-.08 0-.09.06"/><path class="cls-3" d="M17.74 91.58c.26-4.47 0-9-.19-13.5 0-.58-.92-.58-.9 0 .13 4.48.14 9 .69 13.5a.2.2 0 00.4 0"/><path class="cls-3" d="M17.17 91.5c2.09 3.09 7 3.58 10.42 3.48 2.67-.08 7.94-.56 8.88-3.68a.37.37 0 00-.67-.3c-1.64 2.67-6 3.17-8.86 3.2-3.13 0-7.23-.59-9.52-2.91-.12-.12-.35 0-.25.19"/><path class="cls-3" d="M17.65 91.75a3.53 3.53 0 00.07-1 1.64 1.64 0 00-.13-.85.13.13 0 00-.23 0 1.64 1.64 0 00-.13.85 3.54 3.54 0 00.08 1 .18.18 0 00.34 0"/><path class="cls-3" d="M17.42 91.82a10.78 10.78 0 000-4.16.09.09 0 00-.16 0 10.79 10.79 0 000 4.16.07.07 0 10.13 0m-1.86-.63c-.28.16-.12.58 0 .8a1 1 0 00.78.51c.22 0 .24-.3.05-.36a1 1 0 01-.55-.39c-.11-.18-.09-.41-.25-.56m20.54.27c.86-1.62.76-3.88 1-5.68a38.67 38.67 0 00.61-7 .34.34 0 00-.67-.09 38.31 38.31 0 00-.78 6.42c-.18 2-.84 4.44-.33 6.35a.1.1 0 00.19 0M17.14 78.08c5.51-.34 11.1.35 16.61.31a.23.23 0 00.06-.44c-2.61-1-5.81-.52-8.54-.51h-4.7a8.89 8.89 0 00-3.49.4.11.11 0 00.06.21m-3.65-3.75v1.18a4.51 4.51 0 00.07 1c0 .06.13.09.16 0a3.67 3.67 0 000-2.27.13.13 0 00-.26 0m.82 5.07c-.51-.31-1-.57-1.58-.85s-.86-.59-1.33-.55a.13.13 0 00-.11.19c.25.4.81.55 1.21.75s1.06.56 1.61.79c.22.1.42-.2.2-.33"/><path class="cls-3" d="M11.49 78a23.59 23.59 0 00-.8-5.53 12.1 12.1 0 00-1.88-4.62c-.13-.16-.34 0-.31.19.26 1.66 1.15 3.29 1.6 4.93a48.65 48.65 0 011 5.08c0 .2.35.15.35-.05"/><path class="cls-3" d="M12 78a36.35 36.35 0 00-2-8.66c0-.14-.25-.08-.21 0C10.7 72.2 11.24 75.09 12 78"/><path class="cls-3" d="M12.62 78.21a29.79 29.79 0 00-2.22-8.45c0-.09-.18 0-.16.06.9 2.79 1.62 5.55 2.3 8.4h.08"/><path class="cls-3" d="M13.46 78.58a10.54 10.54 0 00-.94-.5 6.84 6.84 0 00-.85-.44.05.05 0 00-.05.09 3.79 3.79 0 00.86.54 3.74 3.74 0 001 .37v-.06m27.15.11a24.58 24.58 0 00.31-3.2 23.4 23.4 0 00.21-3.73c0-.08-.12-.1-.14 0a15.7 15.7 0 00-.35 3.24 21.26 21.26 0 00-.07 3.74"/><path class="cls-3" d="M40.63 78.94c.64-2.21.55-4.78.75-7.07 0-.3-.45-.3-.47 0-.17 2.28-.65 4.8-.37 7.06h.09"/><path class="cls-3" d="M40.35 79a7.84 7.84 0 001.45-.65 9.72 9.72 0 001.63-.65.12.12 0 00-.06-.22 3.38 3.38 0 00-1.67.5 3.34 3.34 0 00-1.39 1m3.38-1.34a50.77 50.77 0 001.45-5.07c.48-1.67 1.16-3.33 1.51-5 0-.17-.21-.31-.3-.13a30.46 30.46 0 00-1.66 5 25.62 25.62 0 00-1.17 5.17c0 .1.13.1.17 0"/><path class="cls-3" d="M43.57 77.52c.08-.15.14-.32.22-.48a1.28 1.28 0 00.17-.42.1.1 0 00-.14-.08 1.24 1.24 0 00-.47.92.12.12 0 00.22.06m-7.06 12.09a14.62 14.62 0 00-.27 1.72h.16a9.37 9.37 0 00.19-2.47c0-.07-.11 0-.13 0a9.28 9.28 0 00-.22 2.47.08.08 0 00.16 0 12.67 12.67 0 00.26-1.73.08.08 0 00-.15 0"/><path class="cls-3" d="M36.61 90.86a1.55 1.55 0 01.06-.31c0-.08-.1-.14-.14-.06a2 2 0 00.24 1.94c.26.28 1.08.65 1.3.13 0 0 0-.12-.06-.12a3 3 0 01-.52.07.92.92 0 01-.63-.4c-.33-.49-.12-1-.19-1.58h-.15v.32c0 .11.07.05.08 0"/><path class="cls-3" d="M38.07 92.79c.67-.29.77-.74.9-1.45.23-1.28.35-2.58.53-3.87a78.53 78.53 0 001.1-9.39.14.14 0 00-.28 0 54.76 54.76 0 00-.89 6.65c-.14 1.16-.28 2.32-.4 3.48s0 3.69-1 4.48c-.09.07 0 .19.08.14M32.8 77.87c1.57.17 3.17.15 4.74.29.19 0 .24-.31 0-.34a13.53 13.53 0 00-4.79 0c-.06 0 0 .09 0 .1"/><path class="cls-3" d="M31.81 77.84a15.63 15.63 0 002.82.23 24 24 0 003.28.1c.1 0 .14-.18 0-.2a22.3 22.3 0 00-2.83-.19 21.13 21.13 0 00-3.28 0c-.06 0-.08.1 0 .11m9.2.69a10.11 10.11 0 00.47-3.66h-.06c-.2 1.21-.29 2.43-.52 3.64 0 .07.09.1.11 0m.55-.36A12.52 12.52 0 0042 75a.06.06 0 00-.12 0 13.06 13.06 0 00-.32 3.18m.51-.46A10.49 10.49 0 0042.5 75a.07.07 0 00-.14 0 10.68 10.68 0 00-.36 2.71h.06m.53.02a14 14 0 00.41-2.58h-.06a14.73 14.73 0 00-.47 2.57.06.06 0 00.11 0m.42.01c.73-3 1.58-6 2.34-9a.08.08 0 00-.15 0 87.35 87.35 0 00-2.28 9c0 .05.07.08.09 0m-29.91.97c-.06-.54-.22-1.06-.31-1.6s-.14-1.24-.3-1.84h-.08a8.74 8.74 0 00.6 3.43c0 .05.1.05.09 0m.27.24A36.25 36.25 0 0012.8 75h-.06a13.17 13.17 0 00.59 3.9m.45-1.05c-.12-.77-.18-1.58-.37-2.34h-.05a7.42 7.42 0 00.41 2.33m4.52 14.47a107.27 107.27 0 00.18-12.16.1.1 0 10-.19 0c0 4 0 8.1-.05 12.16h.06m.21-12.89a3.74 3.74 0 000-1 .08.08 0 00-.16 0 4.19 4.19 0 000 1c0 .07.11.07.11 0m.23 12.42c4.15 2.88 10.53 3 15 1 .07 0 0-.15-.06-.13a19.29 19.29 0 01-7.29 1.24 21.75 21.75 0 01-7.63-2.15"/><path class="cls-3" d="M35.26 91.46c.45-4.42 1-8.94 1.07-13.38 0-.08-.14-.1-.15 0-.61 4.41-.77 9-1 13.4 0 .05.07.05.08 0M18.82 78.65c2.76.19 5.55.14 8.33.21s5.56.25 8.32.13c.1 0 .1-.13 0-.14-2.75-.22-5.56-.15-8.32-.19s-5.57-.2-8.33-.11c-.07 0-.06.09 0 .1"/><path class="cls-3" d="M19.25 78.64a6.52 6.52 0 00-.67-1.06s-.06 0 0 0a6.94 6.94 0 00.65 1.07h.07m1 .13a2 2 0 01-.39-.53 2.63 2.63 0 00-.22-.55h-.06a.87.87 0 00.17.61 1.72 1.72 0 00.47.5s.05 0 0 0m1.38-.05A3.9 3.9 0 0121 78a1.24 1.24 0 00.69.83s.08 0 0-.06m1 .23c-.12-.15-.21-.32-.33-.47a1.57 1.57 0 00-.38-.43h-.05a1.21 1.21 0 00.3.41c.13.16.29.31.42.47s.06 0 0 0m.81-.07a5 5 0 00-.38-.56 1.35 1.35 0 00-.37-.42h-.07a1.36 1.36 0 00.32.46c.15.18.3.35.46.51s.06 0 0 0M33 79c-.14-.18-.28-.36-.41-.56s-.21-.37-.34-.53-.08 0-.07 0a2.09 2.09 0 00.74 1.11A.05.05 0 0033 79m1.28 0a3.15 3.15 0 01-.54-.61c-.12-.19-.19-.43-.33-.61s-.07 0-.08 0a1.16 1.16 0 00.3.73 1.76 1.76 0 00.61.51s.08 0 0 0m.89-.11c-.13-.17-.26-.33-.37-.5s-.19-.34-.31-.5a.07.07 0 00-.12.06 2.51 2.51 0 00.72 1 .06.06 0 00.08-.08m.76.25a5.85 5.85 0 00-.38-.63 1.91 1.91 0 00-.39-.46h-.06a1.76 1.76 0 00.34.57 4.25 4.25 0 00.42.53l.07-.06m.34-.17a1.35 1.35 0 00-.6-.9s-.07 0-.05.06c.15.31.4.57.56.88 0 .06.11 0 .09 0M18.84 91.94a68.05 68.05 0 00.24-12.28.11.11 0 00-.21 0c-.13 4-.26 8.23-.08 12.28h.05"/><path class="cls-3" d="M19.24 92.06a59.27 59.27 0 00.23-11.91c0-.1-.15-.11-.15 0-.16 4-.1 7.95-.19 11.91 0 .07.1.07.11 0m.42-.6"/><path class="cls-3" d="M19.57 92.19c0-1.81.07-3.55.16-5.35h-.06a15.38 15.38 0 00-.17 5.37h.07m.34.22c.12-2.14.22-4.3.19-6.45 0-.07-.1-.06-.1 0-.14 2.14-.16 4.31-.15 6.45h.06m.66.36c.11-2.1.36-4.21.43-6.31h-.08a24.79 24.79 0 00-.4 6.32h.05m.54.2a53.94 53.94 0 00.18-6h-.08a53.85 53.85 0 00-.15 6h.05m.65.28a44.24 44.24 0 000-6.2h-.08a45.82 45.82 0 000 6.2h.06m-1.58-10.34a31.73 31.73 0 000-4.25h-.07a30.14 30.14 0 000 4.25m.7-.24c0-1.3.14-2.6.13-3.89h-.07a12.45 12.45 0 00-.1 3.9m.56-.25a19 19 0 00.23-3.53h-.07a19.92 19.92 0 00-.2 3.54m.6-.01A9.6 9.6 0 0022 79h-.07c-.1 1.12-.05 2.28-.12 3.4h.06m.61.06c0-1.13.09-2.28 0-3.41-.09 1.13 0 2.28 0 3.41M23 82a17.79 17.79 0 00.12-2.92h-.05A17.75 17.75 0 0022.9 82c0 .07.09.06.1 0m.45-.39a5 5 0 000-2.57c0-.05-.1 0-.1 0 0 .43.07.85.07 1.28s-.05.85-.09 1.27c0 .06.09.07.1 0m.43-.82a2.14 2.14 0 000-1.61h-.06a3.66 3.66 0 010 1.58h.06m.49-.23c0-.26 0-.51-.06-.77a2.21 2.21 0 00-.11-.58h-.07a2.52 2.52 0 000 .67c0 .23.06.46.1.68 0 .06.11 0 .1 0m.29-.24a5 5 0 00-.17-1.1h-.08a5.18 5.18 0 00.14 1.1c0 .06.12 0 .11 0m9.08 12.66a8.26 8.26 0 00.2-2.32h-.07a8.56 8.56 0 00-.24 2.31c0 .06.1.08.11 0m.12-3.05c.21-3.56.54-7.25.44-10.82 0-.1-.14-.09-.15 0a76.69 76.69 0 00-.35 10.82h.06m.93-3.16a52 52 0 00.08-7.17h-.05a52 52 0 00-.09 7.17c0 .05.06.05.06 0m.38-.58a44.73 44.73 0 00.66-7.2s-.07-.05-.08 0a69.13 69.13 0 00-.69 7.18c0 .07.1.08.11 0M34 92.56a10.76 10.76 0 00.36-1.88 13.29 13.29 0 00.23-1.68.06.06 0 00-.12 0 15.13 15.13 0 00-.34 1.88 8.45 8.45 0 00-.2 1.65h.09m.35.16c0 .19.14.13.24 0s.06-.37.07-.46c0-.41.07-.82.11-1.24a14.28 14.28 0 00.1-2.17c0-.07-.12-.09-.13 0a10.7 10.7 0 00-.2 1.87 9.54 9.54 0 01-.13 2"/><path class="cls-3" d="M34.9 92.32a8.62 8.62 0 00.1-3.43c0-.06-.09 0-.1 0a25.86 25.86 0 00-.13 3.41s.08.06.1 0m-.93.75a13.5 13.5 0 00.48-3.79.06.06 0 00-.12 0 13.85 13.85 0 00-.45 3.74s.08.06.09 0m1.46-.92a5.53 5.53 0 000-3.07.06.06 0 00-.12 0c0 .51.08 1 .09 1.52s-.05 1-.07 1.51a.06.06 0 00.12 0"/><path class="cls-3" d="M34 91.58a6.29 6.29 0 00.27-3.3c0-.06-.09 0-.1 0-.07.55 0 1.1-.07 1.65S34 91 34 91.58"/><path class="cls-3" d="M34.11 92.19c.08-1.51.18-3 .26-4.51 0-.06-.08-.07-.1 0A11 11 0 0034 92.2c0 .06.09 0 .09 0"/><path class="cls-3" d="M34.06 93.05a35 35 0 00.5-5c0-.07-.11-.08-.12 0a35 35 0 00-.51 5c0 .08.12.1.13 0m-.46.23c.1-1.53.24-3.09.28-4.63 0-.05-.09-.07-.1 0a21.22 21.22 0 00-.29 4.64.06.06 0 00.11 0m-.53.11c.26-2.82.37-5.68.4-8.51a.06.06 0 10-.11 0c-.11 2.84-.27 5.67-.39 8.51 0 .07.1.07.1 0"/><path class="cls-3" d="M18.71 91c2 2 5.09 2.55 7.8 2.53 2.53 0 6.4-.15 8.42-1.84v-.06c-2.36 1.41-5.67 1.76-8.37 1.81a12.91 12.91 0 01-7.78-2.46m.28-11.4q7.71.15 15.44.34a.08.08 0 100-.15 150.15 150.15 0 00-15.44-.35.08.08 0 100 .16m-2.8 12.5c-.15-5.35-.83-10.72-1.06-16.07a.1.1 0 00-.2 0 92 92 0 001.22 16.08M37 91.83c.67-4.66 1-9.42 1.39-14.11 0-.13-.18-.13-.19 0-.53 4.67-1.09 9.41-1.3 14.1a.05.05 0 00.1 0"/><path class="cls-3" d="M37.12 91.56a5.45 5.45 0 00-.66-1.56h-.07a5.19 5.19 0 00.66 1.57h.07m.1-1.72a5.26 5.26 0 01-.49-1.08h-.07a1.78 1.78 0 00.48 1.13s.12 0 .08-.06"/><path class="cls-3" d="M37 91.1c-.13.55.27 1.34.91 1.26 0 0 .05 0 0-.06a1.41 1.41 0 01-.63-.38 1.05 1.05 0 01-.24-.8s0-.05 0 0m-19.81.81a1.17 1.17 0 01-1.14-1.08h-.05a.89.89 0 00.31.87 1.11 1.11 0 00.39.24.59.59 0 00.26.04h.27c.12 0 0 0 0 0M40.6 75.88a6.5 6.5 0 00-.6-1.11.07.07 0 00-.13.07 6.59 6.59 0 00.65 1.08h.06M18.9 91.85a7.84 7.84 0 00.1-1.28 2.67 2.67 0 00-.15-1.09.05.05 0 00-.1 0 3.55 3.55 0 000 1.08v1.25c0 .11.19.14.2 0"/><path class="cls-3" d="M19.11 92.08a6.64 6.64 0 00.09-1.41 5.26 5.26 0 00-.06-1.43.09.09 0 00-.17 0 5.26 5.26 0 00-.06 1.43 7.37 7.37 0 00.09 1.41h.11"/><path class="cls-3" d="M19.16 92a5.27 5.27 0 00.18-2.61.09.09 0 00-.17 0 7 7 0 00-.07 1.21c0 .46-.08.92-.07 1.38 0 .07.11.09.13 0"/><path class="cls-3" d="M19.38 91.7v.3h.2c0-.66-.11-1.31-.1-2s.09-1.32.09-2a.07.07 0 00-.13 0 7.68 7.68 0 00-.06 4c0 .13.23.07.2 0a1.77 1.77 0 01-.08-.31h-.08"/><path class="cls-3" d="M19.59 91.82a16.7 16.7 0 00-.05-2v-2c0-.07-.12-.1-.13 0a9.49 9.49 0 00.14 4h.08m-.56.12a7.16 7.16 0 001.8 1c.24.12.57.21.56-.19 0-.08-.09-.09-.14 0-.14.2-1-.35-1.18-.44a3.47 3.47 0 00-1-.41"/><path class="cls-3" d="M19 91.51a7.92 7.92 0 001.62.95 4.89 4.89 0 001.57.59c.08 0 .09-.1 0-.14a9.53 9.53 0 00-1.68-.79c-.5-.24-1-.51-1.49-.71a.06.06 0 00-.06.1"/><path class="cls-3" d="M19.68 92a1.71 1.71 0 01-.23-.13l-.15.16a7.84 7.84 0 001.62.86 4.73 4.73 0 001.75.49.1.1 0 00.06-.19 11.57 11.57 0 00-1.5-.52c-.63-.24-1.22-.55-1.82-.84a.11.11 0 10-.09.21.67.67 0 00.34 0c.05 0 .07-.08 0-.09"/><path class="cls-3" d="M20.76 92.38c-.23 0 .29.37.3.37a2.54 2.54 0 00.38.16 15.16 15.16 0 001.6.56 8.77 8.77 0 002.82.46.09.09 0 000-.17c-.9-.25-1.85-.33-2.76-.58a27.92 27.92 0 01-2.66-.93c-.11 0-.15.13-.05.17s.12.07.35 0v-.09m15.5-3.89a62.33 62.33 0 00.89-8.29h-.07a62.32 62.32 0 00-.88 8.29h.06M36.15 87c.1-2.8.43-5.51.68-8.28a.07.07 0 00-.13 0A23.22 23.22 0 0036 87a.06.06 0 00.11 0"/><path class="cls-3" d="M36.4 83.06c.09-1.78.07-3.57.19-5.36 0-.12-.21-.15-.22 0a16.65 16.65 0 00-.06 5.41h.09"/><path class="cls-3" d="M36.37 81.62a19.1 19.1 0 00.49-3.18.1.1 0 00-.2 0 20.16 20.16 0 00-.4 3.19c0 .07.1.08.11 0m.76-1.48a8.55 8.55 0 000-2 .06.06 0 00-.11 0 8.56 8.56 0 000 2 .08.08 0 00.15 0M15.39 27.87l-.36.19.37-.19M15 28C7.64 33.3 3.34 44.09 6.45 52.9a.06.06 0 10.12 0A25.41 25.41 0 017 39.17 23.69 23.69 0 0115 28M8.1 55.94l-.18-.18.18.19"/><path class="cls-3" d="M7.16 54.32a31.55 31.55 0 005.75 9.36 19.59 19.59 0 008.49 4.83s.07-.05 0-.07c-3.06-1.56-6.17-2.53-8.58-5.13s-3.94-5.94-5.64-9M7 55.78a23.85 23.85 0 006.37 9.7s.09 0 .06-.06a60.4 60.4 0 01-3.78-4.8A40.53 40.53 0 017 55.76m2.78-30.88c-.14.4.61.4.47 0a.24.24 0 00-.45 0M16 39.26c1.47 1.55 3.29 2.85 4.9 4.26s3.23 2.89 4.83 4.35c.19.18.49-.11.29-.29-3-2.9-6.34-6.25-10-8.39 0 0-.09 0-.05.07m.25-.03c1.86 1.23 3.88 2.23 5.81 3.34s3.83 2.32 5.82 3.32a.13.13 0 00.13-.23 68.81 68.81 0 00-11.74-6.48"/><path class="cls-3" d="M27.76 45.88c5.3-4.56 10.8-9 15.83-13.9.13-.12-.05-.28-.18-.18C38 36.17 32.8 41 27.6 45.72c-.11.1 0 .26.16.16"/><path class="cls-3" d="M43.53 31.66c-5.1 5.55-10.14 11.14-15.29 16.65a.13.13 0 10.19.19 91.37 91.37 0 007.71-8.15c2.53-2.83 5.07-5.65 7.55-8.53.1-.11-.06-.27-.16-.16M28.22 46.78c-.09-.18-.25-.2-.43-.21-.45 0-.45.73 0 .71a.47.47 0 00.39-.15.32.32 0 000-.35m-2.6.7a3.66 3.66 0 00.75.82 3.61 3.61 0 00-.7-.85h-.06"/><path class="cls-3" d="M25.49 47.58l.61.55a3.55 3.55 0 00.58.46s.05 0 0 0a3.71 3.71 0 00-.58-.54l-.61-.49s-.06 0 0 0m.29-.17a5.34 5.34 0 00.6.66 2 2 0 00.58.46 4 4 0 00-.57-.52l-.62-.59m2.55-2.05c-.22.18-.41.36-.61.55a3.27 3.27 0 00-.5.55 3.26 3.26 0 00.54-.51c.19-.2.37-.39.55-.61"/><path class="cls-3" d="M28.67 45a8.84 8.84 0 00-1.07.87 4 4 0 00-.91 1s0 .06 0 0a8.79 8.79 0 00.91-.92c.34-.34.69-.65 1.05-1v-.05"/><path class="cls-3" d="M28.25 45.37a3.79 3.79 0 00-.95.69 2.46 2.46 0 00-.69.82h.06a7.51 7.51 0 00.73-.76c.28-.27.59-.5.87-.75"/><path class="cls-3" d="M28 45.65a7.9 7.9 0 00-1 .92 4.64 4.64 0 00-.87 1.06.06.06 0 00.08.08 7.23 7.23 0 00.88-1c.32-.35.65-.7.94-1.07 0 0 0-.07 0 0m-.18-.11a11.14 11.14 0 00-.93.89 9.88 9.88 0 00-.9.93h.05a9.82 9.82 0 00.93-.85c.3-.3.61-.6.89-.93m-.2-.12a6 6 0 00-1.08.93 5.07 5.07 0 00-.94 1.08s0 .06 0 0a11.92 11.92 0 001-1c.33-.34.69-.65 1-1m-.17-.12a4.3 4.3 0 00-.95.75 3.33 3.33 0 00-.79.92s0 .07.06 0c.31-.25.54-.59.83-.86s.6-.52.89-.8c0 0 0-.07 0 0m1.53 2.4A4.78 4.78 0 0028 48.92a3.85 3.85 0 00.55-.59c.18-.21.36-.4.55-.59"/><path class="cls-3" d="M29.39 47.41a3.82 3.82 0 00-1 .78 2.93 2.93 0 00-.69.92.07.07 0 00.1.07 5.45 5.45 0 00.79-.87c.27-.29.56-.55.8-.86 0 0 0-.06 0 0"/><path class="cls-3" d="M28.87 47.89a5 5 0 00-.6.52 2 2 0 00-.52.59s0 .1.06.08a2.11 2.11 0 00.58-.5 4.68 4.68 0 00.55-.62s0-.1-.07-.07M26 47.78a5.77 5.77 0 00.68.63 3.6 3.6 0 00.68.5c.05 0 .11 0 .08-.08a3.43 3.43 0 00-.65-.61 4.74 4.74 0 00-.71-.54c-.07 0-.12 0-.08.1"/><path class="cls-3" d="M26.07 47.91c.09.07.15.19.25.26l.4.31a3.81 3.81 0 00.71.56s.1 0 .08-.06a1.71 1.71 0 00-.61-.67 3.18 3.18 0 00-.37-.27l-.19-.1h-.26"/><path class="cls-3" d="M26.16 48a1.35 1.35 0 01-.15-.26h-.1a3.47 3.47 0 00.84.91 3.7 3.7 0 00.92.66c.06 0 .08-.06 0-.09a6.4 6.4 0 00-.9-.82 6.46 6.46 0 00-.83-.74c-.06 0-.13.05-.07.1a1.47 1.47 0 01.21.22m.32.02c.2.18.43.33.64.51a2 2 0 00.54.44.05.05 0 00.07-.06 1.45 1.45 0 00-.53-.57 2.57 2.57 0 00-.67-.41c-.05 0-.09 0-.05.09"/><path class="cls-3" d="M27.48 48.88a1.24 1.24 0 00.29.27h.05a1.24 1.24 0 00-.27-.29l-.07.07m-11.23-9.7a3.38 3.38 0 00.79.57s.05 0 0 0a3 3 0 00-.75-.62.06.06 0 00-.07.09m.83.42a31.64 31.64 0 006.6 4.66.06.06 0 00.06-.11c-2.2-1.55-4.45-3-6.63-4.59m7.05 4.91a16.83 16.83 0 001.43 1.23 10.41 10.41 0 001.33 1.05c.06 0 .12-.05.07-.1a11.13 11.13 0 00-1.45-1.2 13.59 13.59 0 00-1.34-1s-.06 0 0 .05M27.24 48c.13-.12.33-.17.4-.35h-.05c-.18.06-.24.26-.37.39m1.46-1.32c2-1.88 4-3.91 5.93-5.88 1.79-1.79 3.54-4 5.75-5.25.06 0 0-.14 0-.12-2.05.84-3.56 2.93-5.07 4.47-2.21 2.23-4.5 4.41-6.61 6.73 0 0 0 .08.05 0"/><path class="cls-3" d="M27.12 47.75c0 .17.05.34.07.51a.62.62 0 00.08.33h.06a.8.8 0 000-.37c0-.15-.07-.31-.11-.47s-.07 0-.06 0m.44-.1a1.09 1.09 0 00-.07.51 1.35 1.35 0 00.1.53h.08s-.05-.36-.06-.54a1.92 1.92 0 000-.48m.5-.75a5.5 5.5 0 000 1.94h.08c0-.63 0-1.28-.07-1.92m10.75-10.42c.31-.21.6-.46.89-.7a10.77 10.77 0 001-.83v-.05a10.22 10.22 0 00-.88.72c-.32.28-.65.54-.94.84m.02-.15c.36-.27.68-.61 1-.91a6.35 6.35 0 001-.92v-.06a4 4 0 00-1 .81 6.08 6.08 0 00-1 1m-17.67 6.64a1.79 1.79 0 00.24.75h.05a1.71 1.71 0 00-.25-.75m.51.18a3.5 3.5 0 00.24 1.11h.07a3.87 3.87 0 00-.28-1.1m.54.27a7.22 7.22 0 00.24 1.39c0 .05.12.05.11 0a6.45 6.45 0 00-.3-1.37h-.05m.6.61c0 .21 0 .43.05.64a4.56 4.56 0 000 .64h.06a2.31 2.31 0 00-.07-1.3m.3.2c0 .23.05.46.06.69s0 .4 0 .6h.07a2.14 2.14 0 00-.06-1.3h-.08m.56.19a2.92 2.92 0 00.06 1.58 6.78 6.78 0 000-.77v-.78h-.06m.31.34a7.31 7.31 0 00.08 1.48h.09a7.24 7.24 0 00-.12-1.47h-.05m.41.18c0 .24 0 .48.05.73s0 .49 0 .73a.05.05 0 00.1 0 2.84 2.84 0 00-.14-1.47m.41.55a8.29 8.29 0 00.06.85 1.34 1.34 0 00.12.63h.06a1.43 1.43 0 000-.65 8.22 8.22 0 00-.15-.84h-.05m.47.47a2.41 2.41 0 00.08 1.48h.08a2.91 2.91 0 00-.07-.78c0-.23 0-.46-.06-.68m.2.25a4.59 4.59 0 00.11 1.48s.11.07.12 0a5 5 0 00-.11-1.49.06.06 0 00-.12 0m.28.2a4.42 4.42 0 000 .63 2.17 2.17 0 00.07.57c0 .07.14.09.16 0a2.59 2.59 0 000-.55 3.65 3.65 0 00-.12-.66h-.08"/><path class="cls-3" d="M26.19 46.57a2.9 2.9 0 01.06.41 1.82 1.82 0 000 .33c0 .08.13.08.16 0a.93.93 0 00-.08-.81.07.07 0 00-.13 0"/><path class="cls-3" d="M26.37 46.75a.62.62 0 00.12.3c0 .05.1 0 .11 0a.59.59 0 00-.09-.31.07.07 0 00-.14 0m2.22.19v.55a3.31 3.31 0 00-.06.55h.07a1.65 1.65 0 000-1.12m.32-.62v.63a1.22 1.22 0 00.08.47h.06a1.77 1.77 0 000-.56 5.21 5.21 0 00-.08-.55h-.09m.67-.36v1.28a2.46 2.46 0 00.11-1.29c0-.06-.11-.07-.1 0m.43-.45a2.76 2.76 0 000 1.11h.06a2.76 2.76 0 000-1.11m.36-.63a5.49 5.49 0 000 1.46h.05a5.49 5.49 0 000-1.46m.25-.01v.49a2.17 2.17 0 000 .44h.06a1.17 1.17 0 00-.05-1h-.05m.52-.67a2.85 2.85 0 000 .65 1.09 1.09 0 00.13.57h.08a2.16 2.16 0 00-.05-.56v-.63a.06.06 0 00-.12 0m.43-.48a2.45 2.45 0 000 1.11h.07a2.45 2.45 0 000-1.11h-.09m.46-.35a4.51 4.51 0 000 .52.94.94 0 000 .41h.06a.94.94 0 000-.41v-.52a.06.06 0 10-.12 0m.61-.64a2.65 2.65 0 00.13 1h.07a2.91 2.91 0 00-.11-1h-.09"/><path class="cls-3" d="M27.36 45.73a3.54 3.54 0 00-1 .92c-.09.11.06.26.16.16.37-.36.72-.73 1.1-1.08.11-.1 0-.25-.15-.16-.34.28-.65.57-1 .86l.18.19.62-.67a.13.13 0 00-.13-.21 1.39 1.39 0 00-.95.8c0 .07.08.12.13.07a2.12 2.12 0 01.89-.62l-.12-.22-.62.66a.13.13 0 00.18.19c.32-.3.64-.58.94-.89l-.15-.16c-.36.37-.74.72-1.11 1.08l.16.16c.28-.35.62-.65.89-1 0-.05 0-.11-.08-.08m5.83-3.38a2.16 2.16 0 000 .76.05.05 0 00.1 0 2.16 2.16 0 000-.76c0-.05-.09-.05-.09 0m.43-.53a2.3 2.3 0 00.12.74h.06a1.88 1.88 0 00-.09-.74h-.09m.59-.47a.76.76 0 00.08.66 2.33 2.33 0 01-.07-.64h-.05m.61-.56a6 6 0 01.06.73 1 1 0 000-.76h-.05m.41-.51a2 2 0 01.08.41V41c0 .1.05 0 .06 0a.91.91 0 000-.77c0-.06-.11 0-.09 0m.35-.51a2.42 2.42 0 010 .47 1.45 1.45 0 000 .36h.08a1.17 1.17 0 00-.06-.86h-.06m.63-.43a1.58 1.58 0 000 .65h.08a1.77 1.77 0 000-.65c0-.06-.09-.06-.09 0m.32-.46a1.85 1.85 0 00.09.66h.05a1.78 1.78 0 00-.1-.64m.31-.37a3 3 0 01.06.42 1.56 1.56 0 000 .31h.06a1 1 0 00-.11-.76m.54-.53a1.58 1.58 0 000 .65h.06a1.78 1.78 0 000-.65m.28-.44a2.2 2.2 0 01.07.37.82.82 0 000 .27h.08a.7.7 0 00-.09-.68c0-.05-.1 0-.08 0m.4-.41c.06.21 0 .43.07.64h.08a.74.74 0 000-.69c0-.06-.11 0-.1 0m.2-.15a1 1 0 00.13.58h.07c.07-.17 0-.41-.07-.58s-.14-.06-.13 0m.25-.27a.84.84 0 000 .47h.09a1 1 0 000-.47c0-.11-.15-.11-.16 0m-11.71 8.93a3.28 3.28 0 01.31-.2 2.86 2.86 0 00-.43.35 2 2 0 00-.42.35s0 .05 0 0a1.17 1.17 0 00.44-.29 1.49 1.49 0 00.42-.41l-.29.23m-.14-.34a1.37 1.37 0 00-.76.66 3 3 0 00.3-.32 2.81 2.81 0 01.44-.33v-.05m12.15-20.65A11.19 11.19 0 0040 22.27s0-.07-.07 0c-.43.72-.85 1.44-1.25 2.17 0 .06.05.1.09.05m.51.58A15 15 0 0040.86 23a15.12 15.12 0 00-1.61 2s0 .05 0 0m1.16.57c.45-.59.94-1.16 1.43-1.72 0 0 0-.05 0 0a8.54 8.54 0 00-1.45 1.72m-5.55-2.79a8.6 8.6 0 00.83-2.2h-.05a8.84 8.84 0 00-.84 2.21h.06m-.9.09a13.5 13.5 0 00.74-2.31h-.06a14.1 14.1 0 00-.73 2.31m-.82-.37a6.11 6.11 0 00.42-.94 8.45 8.45 0 00.39-1.1h-.06a6.19 6.19 0 00-.41.95 6.26 6.26 0 00-.39 1.1m-.96-.26c.13-.32.22-.65.34-1s.34-.71.45-1.08c0 0 0-.05-.05 0a4.72 4.72 0 00-.8 2.07h.05m-1.26.03a5.38 5.38 0 00.34-1 3.16 3.16 0 00.19-1s-.06-.06-.07 0a4.71 4.71 0 00-.25.91c-.09.34-.21.68-.3 1h.09m-5.17 49.56a6.64 6.64 0 00-.1 2.7h.07c.08-.88 0-1.79.08-2.68h-.05m1.02-.01a6.49 6.49 0 00-.16 2.44h.07c.1-.78.1-1.64.14-2.43h-.05m1.14.11a24.27 24.27 0 000 2.56h.08a7.22 7.22 0 00-.06-2.58m1.58-.09a13.36 13.36 0 00.14 2.23h.07a13.25 13.25 0 00-.16-2.18h-.05m-9.95-.92a9.71 9.71 0 00-.43 1.47s0 .06.06 0a10.58 10.58 0 00.46-1.48m1.15.11a10.64 10.64 0 00-.52 2.07h.07a9.72 9.72 0 00.52-2.06s-.06-.06-.07 0m1.21.26a11.19 11.19 0 00-.45 2.55c0 .07.09.08.11 0a10.5 10.5 0 00.39-2.56h-.05M51.35 36.9a8.38 8.38 0 001.09-.61s0-.06 0 0a9.13 9.13 0 00-1.1.62s0 .06 0 0m.24 1.09l.63-.24a1.57 1.57 0 00.48-.25v-.08a1.54 1.54 0 00-.5.2l-.6.33m-.06-5.11a1.2 1.2 0 000 .38h.09v-.38h-.07m-.11.49c.14.28.3.56.44.85s.23.59.37.87h.07a4 4 0 00-.81-1.75l-.07.06"/><path class="cls-3" d="M51.42 33.11c.19.37.4.73.57 1.11s.27.8.42 1.19h.07a4.59 4.59 0 00-1-2.34h-.06"/><path class="cls-3" d="M51.44 33.09c.2.41.44.8.63 1.21s.31.85.53 1.25h.08a4.32 4.32 0 00-1.21-2.46m-.25-.09l.52-.25a1.48 1.48 0 00.46-.26.05.05 0 000-.09 1 1 0 00-.51.19 2.33 2.33 0 00-.45.38"/><path class="cls-3" d="M52.17 32.61c.2.42.47.82.69 1.24a4.92 4.92 0 00.57 1.15h.08a3.1 3.1 0 00-.51-1.25 5.82 5.82 0 00-.76-1.22c-.05-.06-.13 0-.1.08"/><path class="cls-3" d="M52.69 35.62a1.18 1.18 0 00.53-.22c.13-.08.31-.19.34-.35a.06.06 0 00-.07-.07c-.14 0-.24.19-.36.27a2.69 2.69 0 01-.48.24.07.07 0 000 .13m-.84-2.77c0 .19 0 .39.06.58a1.81 1.81 0 000 .52L52 34a.86.86 0 000-.57 1.21 1.21 0 00-.19-.55m.39-.5a13.45 13.45 0 000 1.42c0 .21-.09.75.09.92s.3 0 .19-.14-.14-2.07-.17-2.27h-.06m.3.9a8.59 8.59 0 00.14 2.09s.09.05.1 0a8.67 8.67 0 00-.16-2.09c0-.05-.08-.06-.08 0m.45.72v.62a3.18 3.18 0 00.05.62h.07a2.56 2.56 0 000-.62v-.62h-.09"/><path class="cls-3" d="M51.52 33a5.73 5.73 0 00.5 1.1 6.53 6.53 0 00.61 1.21h.11a3.75 3.75 0 00-.44-1.15 4 4 0 00-.73-1.16s-.06 0 0 0"/><path class="cls-3" d="M51.56 32.72a5.89 5.89 0 00.55 1.35 7.57 7.57 0 00.76 1.47.06.06 0 00.12 0 7.72 7.72 0 00-.62-1.45 5.62 5.62 0 00-.75-1.36h-.06m-.36-1.95c.43.94 1 1.79 1.53 2.7s.89 1.9 1.47 2.75a.19.19 0 00.34-.15 12.28 12.28 0 00-1.45-2.81 13.12 13.12 0 00-1.83-2.54s-.08 0-.06.05"/><path class="cls-3" d="M51.31 30.92c.35.11.76-.16 1.08-.28a2.83 2.83 0 001.07-.49.11.11 0 00-.08-.19 2.44 2.44 0 00-1.13.34c-.32.14-.81.24-1 .58"/><path class="cls-3" d="M53.24 30.11c.83 1.62 1.71 3.26 2.68 4.81a.28.28 0 00.49-.29c-.47-.93-1-1.84-1.53-2.74A5.9 5.9 0 0053.36 30c-.08-.06-.16.05-.12.13"/><path class="cls-3" d="M54.48 36.22a12.91 12.91 0 001.84-1.06.12.12 0 00-.12-.16c-.61.37-1.22.72-1.86 1-.15.08 0 .3.14.23m-3-5.15c.25-.14.48-.32.73-.48.09-.06.71-.55.81-.47-.26-.39-1.49.62-1.7.82s0 .22.13.16m3.87 13.14a.17.17 0 00.15 0c.14 0 .33-.16.48-.2a2.11 2.11 0 01.5-.1 2.32 2.32 0 01.94.18 4.58 4.58 0 00.71.33s.12 0 .09-.1c-.17-.42-.75-.6-1.17-.65a2.68 2.68 0 00-.75 0c-.1 0-.84.33-.86.32s-.2.11-.09.16m-.06 7.55c.24.5 1.06.48 1.52.47a1.59 1.59 0 001.52-.85 2.67 2.67 0 01-2.91.3.07.07 0 00-.1.1"/><path class="cls-3" d="M57.87 44.35c.77 1.68 1.28 5.69.05 7.27a.14.14 0 00.17.22c1-.44.91-2.67.89-3.59 0-1.23 0-3.1-1.06-3.93h-.05"/><path class="cls-3" d="M57.94 44.43c1.44 1.75.56 4.44.45 6.43 0 .15.19.17.26.07.88-1.15.61-2.93.44-4.27-.11-.85-.17-2-1.05-2.36a.08.08 0 00-.1.13"/><path class="cls-3" d="M58.39 45.56c-.12 1.95.18 3.79-.2 5.74a.16.16 0 00.31.09 9.81 9.81 0 000-5.85h-.09"/><path class="cls-3" d="M57.62 44.16a13.63 13.63 0 01.6 4c0 1.22.14 2.87-.8 3.78a.07.07 0 00.08.11c1-.56.87-1.82.9-2.8a10.14 10.14 0 00-.74-5.06"/><path class="cls-3" d="M58.21 44.49c1 1.79 1.48 4.54.36 6.45 0 .05 0 .09.07 0a6.07 6.07 0 00-.36-6.52h-.07m-6.28-12.59a13.56 13.56 0 002-.91v-.05a12.57 12.57 0 00-2 .9v.06m.24.34a8.83 8.83 0 002-1s0-.05 0 0a8.5 8.5 0 00-2 1m.13.27a5.39 5.39 0 001.07-.44 4 4 0 001-.65 10.14 10.14 0 00-1 .55c-.35.21-.72.39-1.07.61m-.25-.94c-.19.12.09 0 .16 0l.54-.3a5.78 5.78 0 001-.57v-.07a4.82 4.82 0 00-.93.48 5.72 5.72 0 00-.87.58l.17-.1m-.43-.01c.29-.16.56-.37.85-.54s.61-.3.89-.49v-.08a3.4 3.4 0 00-1.74 1.06s0 .07 0 0m2.46 3.63a5 5 0 00.78-.43c.29-.17.6-.32.87-.51l-.06-.08-.06.08s0 .05 0 0h.09v-.09a6.85 6.85 0 00-.84.46 3.9 3.9 0 00-.79.53s0 .05 0 0m0 .38a8.83 8.83 0 001-.45 4.1 4.1 0 001-.54v-.07a4.16 4.16 0 00-.93.44 10 10 0 00-1 .58"/><path class="cls-3" d="M54.24 35.75c.37-.17.74-.38 1.1-.58a6.46 6.46 0 00.95-.57v-.07a6.13 6.13 0 00-1 .52c-.36.21-.72.42-1.06.65 0 0 0 .07 0 0m-.33-.7a9.1 9.1 0 00.93-.48 4.08 4.08 0 00.8-.49s0-.14-.08-.12a3.82 3.82 0 00-.82.44 10.07 10.07 0 00-.88.56.05.05 0 100 .09m-.15-.35a6.07 6.07 0 001-.43 2.71 2.71 0 00.89-.59c0-.06 0-.15-.07-.13a3.28 3.28 0 00-.87.5c-.32.19-.65.37-1 .58v.07m1.93 10.68a27.09 27.09 0 003-.15v-.06a14.83 14.83 0 00-3 .08c-.08 0-.08.13 0 .13m0 .39h-.16c-.07 0-.07.12 0 .11.53 0 1.06-.1 1.59-.13a8 8 0 001.38-.11v-.07a5 5 0 00-1.5 0c-.26 0-.53.05-.79.09h-.25c-.15 0-.24 0-.26.12m-.38.39a10.69 10.69 0 002.88-.24c.06 0 0-.1 0-.11a10.25 10.25 0 00-2.86.31"/><path class="cls-3" d="M55.46 45.25c.94 0 1.93 0 2.86-.12.06 0 .09-.11 0-.13a9 9 0 00-2.88.18v.07"/><path class="cls-3" d="M55.51 45.05a3.94 3.94 0 001.28-.05 9.45 9.45 0 001.3-.18c.07 0 0-.13 0-.14a10.33 10.33 0 00-1.47.16 3.3 3.3 0 00-1.09.21"/><path class="cls-3" d="M55.4 44.86h1.44a6.59 6.59 0 001.25-.1.05.05 0 000-.1 7.46 7.46 0 00-2.7.19m.07 5.91a.07.07 0 00.06 0h1.39a4.8 4.8 0 001.2-.12v-.07a7.45 7.45 0 00-1.7 0 6.33 6.33 0 01-.94.11m-.32.58a13.37 13.37 0 002.69-.12s.06-.1 0-.11a9.75 9.75 0 00-2.69.2m.12.36a9.09 9.09 0 002.39-.18.05.05 0 000-.1 9.07 9.07 0 00-2.38.23v.05"/><path class="cls-3" d="M55.22 50.64a10.68 10.68 0 001.6 0 5.89 5.89 0 001.39-.11s.06-.1 0-.11a6.36 6.36 0 00-1.51 0 8.44 8.44 0 00-1.49.19m.3-.44a14.76 14.76 0 001.49 0h1.5c.07 0 .1-.12 0-.14a7 7 0 00-3 .11v.06m1.84-4.2a.09.09 0 000-.18.09.09 0 000 .18m.91-1.16v-.09c0-.09-.11-.08-.14 0-.1.21.06.48.11.69a10.45 10.45 0 00.18 1.12h.08a1.55 1.55 0 000-.8 4.42 4.42 0 00-.1-.5l-.18-.42"/><path class="cls-3" d="M57.88 44.59a5.45 5.45 0 00.17 1.06 3.43 3.43 0 00.28 1h.09a3.65 3.65 0 00-.16-1 8.39 8.39 0 00-.3-1.09h-.08m-2.21-.24a58.29 58.29 0 01-.14 7.24c0 .1.13.1.16 0 .79-2.22.39-5 0-7.26"/><path class="cls-3" d="M55.43 44.34c0 .31.07.63.1.94a3.86 3.86 0 00.11.84c0 .07.13.08.14 0a3.85 3.85 0 00-.16-1.81.1.1 0 00-.19 0m-3.56-13.23c.94 1.53 2.47 3 2.91 4.76a.06.06 0 00.12 0 4.63 4.63 0 00-1.11-2.22 20.48 20.48 0 00-1.9-2.54M53 61.58c-.27.38-.48.81-.74 1.21a4.6 4.6 0 00-.69 1.06h.07a3.06 3.06 0 00.8-1 6.14 6.14 0 00.68-1.26c0-.08-.08-.11-.12-.05m-2.34 1.98a1.47 1.47 0 00.46.36.68.68 0 00.48.12.07.07 0 000-.1c-.11-.1-.28-.11-.41-.18a2.21 2.21 0 01-.45-.3.07.07 0 00-.1.1"/><path class="cls-3" d="M54.14 59.83c-.61.84-1 1.79-1.59 2.67s-1.21 1.71-1.66 2.63c-.09.18.13.39.29.23a12.59 12.59 0 001.73-2.65 13.54 13.54 0 001.31-2.84h-.08m1.59 1.41c-1 1.52-2 3.09-2.86 4.7a.29.29 0 00.5.29c.58-.87 1.09-1.78 1.62-2.69a5.65 5.65 0 00.91-2.26c0-.1-.12-.12-.17 0"/><path class="cls-3" d="M51 65.37a12 12 0 001.83 1.08.12.12 0 00.12-.21c-.62-.35-1.23-.7-1.82-1.1-.14-.09-.27.14-.13.23M53.59 61c.27.23.55.42.83.63a7.86 7.86 0 001 .67 8.62 8.62 0 00-.83-.63c-.31-.23-.62-.47-.95-.68 0 0-.07 0 0 .05m-.23.33a9 9 0 001.84 1.21 9.05 9.05 0 00-1.86-1.19m-.15.23a5.77 5.77 0 00.94.68 4 4 0 001 .53s.05 0 0 0a7.55 7.55 0 00-.95-.55c-.35-.21-.69-.44-1.05-.63m.69-.65c-.2-.11 0 .09.11.13l.53.32a5.16 5.16 0 001 .55s.06 0 0-.06a4.28 4.28 0 00-.88-.57 4.51 4.51 0 00-.93-.47l.17.08m-2.08 3.59a4.8 4.8 0 00.76.46c.29.17.57.36.87.5a.2.2 0 010-.08h-.1.08s.1 0 .06-.07a6.25 6.25 0 00-.82-.51 4.52 4.52 0 00-.85-.43m-.31.28a9.08 9.08 0 00.89.64 4.14 4.14 0 00.94.57s.07 0 0-.07a4.22 4.22 0 00-.84-.59 9.05 9.05 0 00-1-.59m-.16.25c.34.24.7.46 1.06.68a6 6 0 001 .54v-.07a6.07 6.07 0 00-.93-.59c-.36-.21-.72-.42-1.1-.61 0 0-.06 0 0 .05m.51-.69c.27.21.57.39.87.58a4.36 4.36 0 00.82.45.08.08 0 00.07-.13 3.78 3.78 0 00-.79-.5 10.1 10.1 0 00-.92-.49c-.06 0-.11 0 0 .09m.1-.32a6.61 6.61 0 00.86.64 2.69 2.69 0 001 .49.08.08 0 00.08-.13 3.65 3.65 0 00-.94-.52c-.32-.18-.64-.37-1-.54 0 0-.08 0-.05.06"/><path class="cls-3" d="M54.21 60.57c-.86 1.57-1.38 3.62-2.7 4.88 0 0 0 .13.07.09A4.61 4.61 0 0053 63.48a20.67 20.67 0 001.26-2.9M16.09 28.42a50.56 50.56 0 003.36 4c.08.08.19 0 .12-.13a114.04 114.04 0 00-3.38-3.91c-.05-.05-.14 0-.1.08m.3-.03a2.4 2.4 0 00.66-.33 1.34 1.34 0 00.52-.45s0-.12-.07-.09a2.84 2.84 0 00-.5.44c-.19.14-.4.27-.6.41v.07"/><path class="cls-3" d="M17.38 27.68c.59 1.53 1.28 3.05 2 4.53.06.11.25 0 .2-.08-.63-1.52-1.33-3-2.09-4.5 0-.06-.14 0-.11.05M27.26 25c.13 1.71.35 3.45.63 5.15 0 .1.19.08.18 0-.2-1.72-.43-3.44-.69-5.15a.06.06 0 00-.12 0m.25.16a2.26 2.26 0 001.41 0c.07 0 0-.11 0-.12a4 4 0 00-.69 0h-.68c-.05 0-.06.07 0 .08"/><path class="cls-3" d="M28.74 25.07c-.34 1.61-.6 3.26-.81 4.9 0 .12.19.15.21 0 .31-1.61.56-3.26.73-4.9a.07.07 0 00-.13 0M38.13 28c-.74 1.54-1.43 3.16-2 4.77 0 .1.12.16.16.07.69-1.58 1.36-3.19 2-4.79 0-.07-.08-.12-.12-.05"/><path class="cls-3" d="M38.26 28.27a2.88 2.88 0 00.59.45 1.55 1.55 0 00.64.26.07.07 0 000-.12 2.65 2.65 0 00-.58-.3c-.22-.11-.43-.23-.64-.35 0 0-.08 0-.05.06"/><path class="cls-3" d="M39.37 28.82c-1.1 1.21-2.17 2.51-3.15 3.82-.08.1.09.23.17.13 1.08-1.23 2.12-2.54 3.08-3.88.05-.06 0-.13-.1-.07m7.56 7.58c-1.52.77-3 1.64-4.5 2.55-.09.06 0 .21.09.15 1.51-.83 3-1.7 4.48-2.59a.07.07 0 10-.07-.11m-.05.29a2.36 2.36 0 00.18.68 1.61 1.61 0 00.36.62.07.07 0 00.11-.07 3.23 3.23 0 00-.29-.59c-.1-.22-.2-.44-.29-.66h-.07"/><path class="cls-3" d="M47.42 37.8c-1.61.3-3.23.68-4.81 1.12a.11.11 0 00.06.21c1.6-.34 3.22-.74 4.79-1.21.07 0 0-.14 0-.12m1.96 8.91c-1.71.19-3.44.47-5.13.81-.11 0-.06.19.05.17 1.7-.26 3.41-.55 5.1-.86.07 0 .05-.13 0-.12m-.19.29a2.34 2.34 0 00.06 1.41c0 .07.12 0 .12 0a5.05 5.05 0 00-.06-.68v-.69h-.08"/><path class="cls-3" d="M49.39 48.19c-1.62-.28-3.28-.49-4.92-.64-.12 0-.15.2 0 .22 1.63.24 3.29.44 4.93.55.07 0 .09-.12 0-.13m-2.63 10.06c-1.42-1-2.92-1.88-4.42-2.7a.09.09 0 00-.09.16c1.46.91 3 1.8 4.44 2.65.08 0 .14-.07.07-.11m-.28.08a2.47 2.47 0 00-.51.51 1.41 1.41 0 00-.37.62c0 .06.08.08.12 0a2.69 2.69 0 00.38-.55l.43-.57v-.06"/><path class="cls-3" d="M45.78 59.35c-1-1.26-2.16-2.5-3.32-3.66-.1-.1-.24.05-.15.16 1.06 1.24 2.21 2.46 3.38 3.59.06.06.14 0 .09-.09m-6.65 6.42a48.84 48.84 0 00-3.24-4.06c-.08-.09-.19 0-.13.12a90.35 90.35 0 003.27 4c0 .05.14 0 .1-.08m-.31 0a2.54 2.54 0 00-.67.31 1.4 1.4 0 00-.53.43c0 .05 0 .12.08.1a2.78 2.78 0 00.54-.38l.61-.39v-.07"/><path class="cls-3" d="M37.82 66.47c-.55-1.55-1.19-3.1-1.87-4.59-.05-.11-.25 0-.2.08.59 1.54 1.24 3.08 2 4.56 0 .06.14 0 .12 0m-9.49 2.97c-.21-1.71-.5-3.44-.87-5.12 0-.11-.18-.06-.17 0 .28 1.69.58 3.4.92 5.09 0 .07.13 0 .12 0m-.25-.14a2.34 2.34 0 00-1.41.07.07.07 0 000 .13c.22 0 .45-.06.68-.07h.69s.05-.07 0-.08"/><path class="cls-3" d="M26.9 69.47c.27-1.62.45-3.28.59-4.92 0-.12-.2-.15-.22 0-.23 1.63-.41 3.29-.5 4.93a.07.07 0 00.13 0m-9.71-3.25c.73-1.55 1.42-3.17 2-4.78 0-.09-.12-.16-.16-.07-.68 1.58-1.35 3.2-2 4.81 0 .06.08.11.12 0m-.09-.19a2.94 2.94 0 00-.6-.45 1.49 1.49 0 00-.63-.25.07.07 0 00-.05.11 3 3 0 00.59.3L17 66s.08 0 0-.06"/><path class="cls-3" d="M15.94 65.42c1.1-1.22 2.16-2.52 3.14-3.84.08-.1-.09-.22-.17-.13a57.63 57.63 0 00-3.07 3.89c0 .06.06.13.1.08m-7.1-6.94c1.52-.78 3.05-1.66 4.48-2.58.1-.06 0-.21-.08-.15-1.5.84-3 1.72-4.46 2.62-.08 0 0 .15.06.11m.06-.3a2.66 2.66 0 00-.2-.68 1.55 1.55 0 00-.35-.61.07.07 0 00-.11.07 2.69 2.69 0 00.29.59l.3.66h.07"/><path class="cls-3" d="M8.34 57.08c1.61-.31 3.23-.7 4.81-1.15a.11.11 0 00-.06-.21c-1.6.35-3.21.76-4.78 1.24a.06.06 0 100 .12m-2.47-9.49c1.71 0 3.46-.15 5.16-.34.11 0 .12-.18 0-.18-1.72.1-3.45.23-5.16.39-.08 0-.08.13 0 .13m.16-.24A2.32 2.32 0 006.1 46c0-.05-.11-.07-.12 0a3.53 3.53 0 000 .65v.74h.08"/><path class="cls-3" d="M6 46.11c1.58.44 3.2.79 4.81 1.09.14 0 .2-.18.06-.21-1.59-.4-3.22-.74-4.84-1-.07 0-.11.1 0 .12m1.7-9.85c1.5.83 3.07 1.61 4.64 2.29.1.05.19-.1.09-.15-1.53-.78-3.1-1.54-4.66-2.25-.08 0-.14.07-.07.11m.27-.12a2.59 2.59 0 00.49-.56 1.45 1.45 0 00.29-.58.06.06 0 00-.11-.05 2.73 2.73 0 00-.33.58c-.12.2-.26.4-.39.61h.06"/><path class="cls-3" d="M8.62 35.07c1.15 1.17 2.37 2.3 3.62 3.35.11.09.26-.05.16-.15C11.23 37.12 10 36 8.71 35c-.06 0-.15 0-.09.09M3.8 48.93a.18.18 0 00.36 0c0-.24-.39-.24-.37 0m50.36 11.12c.57.45 1.19.84 1.8 1.24.09.06.18-.09.09-.15A19.61 19.61 0 0054.18 60"/><path class="cls-3" d="M54 60.18a7.79 7.79 0 00.85.56 4.08 4.08 0 00.89.49.06.06 0 00.06-.1 3.31 3.31 0 00-.8-.53 9.41 9.41 0 00-.93-.51c-.06 0-.14 0-.08.09"/><path class="cls-3" d="M53.94 60.1a8 8 0 001 .61 3.66 3.66 0 00.94.44 4.17 4.17 0 00-.92-.63A9.48 9.48 0 0054 60c-.09 0-.12.09-.06.14M50.27 63c.22.17.46.32.69.48a2.63 2.63 0 00.73.41s.07 0 .05-.07a2.15 2.15 0 00-.59-.45c-.26-.17-.52-.35-.79-.49-.07 0-.16.06-.09.12"/><path class="cls-3" d="M50.49 63.26a5.44 5.44 0 00.62.45 2 2 0 00.66.4.06.06 0 00.07-.08 1.43 1.43 0 00-.58-.48 2.16 2.16 0 00-.75-.32"/><path class="cls-3" d="M50.31 63.32s.11.07.11.08l.16.07c.12.05.23.12.35.18a6.57 6.57 0 00.62.4s.08 0 .06-.07a1.93 1.93 0 00-1.25-.82.1.1 0 00-.13.1c0 .06 0 .11.08.11"/><path class="cls-3" d="M50.13 63.23a5.38 5.38 0 00.7.39c.26.15.49.33.75.49 0 0 .09 0 .06-.07a2.11 2.11 0 00-1.49-.84M52 60.58a3.3 3.3 0 01.74.4c.17.13.31.34.51.41 0 0 .06 0 .06-.06 0-.25-.33-.43-.53-.55a1.81 1.81 0 00-.77-.29c-.06 0-.06.07 0 .09"/><path class="cls-3" d="M52 60.43a2.56 2.56 0 00.67.55 2.94 2.94 0 00.82.48l.05-.07a3.16 3.16 0 00-.66-.55 3.09 3.09 0 00-.82-.48s-.08 0-.06.07"/><path class="cls-3" d="M52.26 60.76a.47.47 0 01-.18-.19l-.08.13c.24.18.5.32.75.48a2.9 2.9 0 00.71.39.06.06 0 00.07-.09 2 2 0 00-.65-.51 5.31 5.31 0 00-.81-.44c-.12-.05-.18.17 0 .18a.61.61 0 01.23.11s.07 0 0-.06"/><path class="cls-3" d="M51.93 60.82a.31.31 0 00.15.15l.18.12.38.24a2.84 2.84 0 00.7.39.07.07 0 00.07-.12 2.77 2.77 0 00-.65-.47 6.68 6.68 0 00-.67-.41c-.15-.06-.38 0-.24.19v-.09"/><path class="cls-3" d="M51.55 60.74a4.34 4.34 0 00.72.56 3 3 0 00.76.48c.07 0 .11-.07.07-.12a3.48 3.48 0 00-.67-.53 5.51 5.51 0 00-.79-.5c-.07 0-.15 0-.09.11M50.39 63c.28.15.59.26.87.42a4.9 4.9 0 00.76.45s.09-.05.07-.09a1.71 1.71 0 00-.76-.59 2.29 2.29 0 00-.91-.31c-.07 0-.09.09 0 .12"/><path class="cls-3" d="M50.26 63a3.91 3.91 0 001 .71c.05 0 .1 0 .06-.08a3.65 3.65 0 00-1-.74c-.07 0-.15 0-.09.11m3.55-2.84l1 .59a7.27 7.27 0 00.94.62l.06-.07a4.61 4.61 0 00-1.94-1.2v.06M13.81 75a.08.08 0 000 .08.07.07 0 00.11 0c.21-.17 0-.75 0-1a3.93 3.93 0 00-.63-1.54c0-.05-.1 0-.08 0a8.59 8.59 0 01.45 1.23c0 .16.08.32.11.48l.06.47c0 .11 0 .18.09.2h-.07m.07-3.28a7.81 7.81 0 00.14 2.85c0 .08.13.05.14 0a8.28 8.28 0 000-1.41c0-.48 0-1-.05-1.42a.1.1 0 00-.19 0"/><path class="cls-3" d="M14.11 71.74c0 .55 0 1.11.05 1.66a5.84 5.84 0 000 1.45c0 .07.1.06.12 0a3.89 3.89 0 00.11-1.56 8.22 8.22 0 00-.19-1.57.07.07 0 00-.13 0"/><path class="cls-3" d="M14.18 71.22h.05v-.14a.11.11 0 00-.14 0c-.37.25-.14 1-.13 1.39a13.91 13.91 0 00.22 2.53s.1.06.11 0a9.84 9.84 0 000-1.88v-.94c0-.1-.13-1-.11-1.06v.07"/><path class="cls-3" d="M13.72 70.91a8.14 8.14 0 00.47 3.67.06.06 0 00.12 0 10.82 10.82 0 00-.2-1.69c-.09-.65-.12-1.3-.2-2a.1.1 0 00-.19 0"/><path class="cls-3" d="M14.12 71.09a10.77 10.77 0 00.22 4.12.08.08 0 00.15 0 35.19 35.19 0 00-.21-4.1.08.08 0 00-.16 0m-6.49-4.94a23.17 23.17 0 001.52 2.66h.11a10.16 10.16 0 00-1.56-2.7h-.07"/><path class="cls-3" d="M7.58 66.28a6.94 6.94 0 00.72 1.41A8.48 8.48 0 009.14 69a.08.08 0 00.13 0 10.08 10.08 0 00-.77-1.4 6.09 6.09 0 00-.87-1.31"/><path class="cls-3" d="M7.42 65.81c.24.62.53 1.22.82 1.82a10.14 10.14 0 00.94 1.75.05.05 0 00.09 0 8.34 8.34 0 00-.76-1.7c-.31-.63-.62-1.26-1-1.86h-.1m.64.65c.24.5.53 1 .78 1.49a14.72 14.72 0 00.72 1.5c0 .06.1 0 .09 0a7 7 0 00-1.51-3c0-.05-.11 0-.08.07m6.25 7.67h-.18v.13a.1.1 0 000 .1c1.18.58 3.2.25 4.5.28 2.08 0 4.19.22 6.27.09a.11.11 0 000-.22c-1.73-.18-3.49-.14-5.23-.18h-2.44a11.38 11.38 0 00-2.9-.1v-.09"/><path class="cls-3" d="M14.28 74.22a51.91 51.91 0 009.41.4.09.09 0 000-.18 52.67 52.67 0 00-9.39-.37c-.08 0-.11.14 0 .15m18.58.01a25.85 25.85 0 007.95 0c.17 0 .19-.29 0-.29-2.64.11-5.3 0-7.93.11-.07 0-.1.12 0 .14"/><path class="cls-3" d="M33.73 74.6a9.31 9.31 0 002 .22h1.72a16.78 16.78 0 003.46-.34c.09 0 .06-.16 0-.16-2.45-.07-5 .22-7.45.25-.13 0-.13.22 0 .21h.34a.05.05 0 000-.1M15 75.7c8.11 0 16.22-.22 24.32-.5.14 0 .14-.23 0-.22-8.1.24-16.21.37-24.32.55a.09.09 0 000 .17m4.58 4.15a13.76 13.76 0 005.35.06c.14 0 .1-.25 0-.25a48.72 48.72 0 00-6.16.11c-.14 0-.19.23 0 .26a14.69 14.69 0 006.23-.15.14.14 0 000-.27 24.82 24.82 0 00-6 .52c-.15 0-.12.28 0 .27 4.61-.4 9.21-.83 13.83-.93a.13.13 0 000-.26c-2.76 0-5.53.2-8.28.43-1.37.12-2.79.15-4.16.37-.83.13-1 .19-.05.13s1.72-.23 2.6-.27c.34 0 1.18-.11 1.34-.1-.8 0-1.66.27-2.48.29a21.85 21.85 0 00-2.48-.17h1.39a15.81 15.81 0 013.43-.05c-.5-.11-1.61.1-2.28.06s-1.55-.15-2.33-.25c-.11 0-.13.18 0 .19m-3.07-52.55a20 20 0 0112.26-3.54c.05 0 0-.07 0-.07a17.24 17.24 0 00-12.3 3.57s0 .06 0 0m34.8 21.23a23.55 23.55 0 01-4 11.35c0 .05 0 .12.09.07a17.71 17.71 0 004-11.42m-4.76 12.03a29.34 29.34 0 01-7.32 6 21.63 21.63 0 01-9.3 2.35.09.09 0 000 .17c6.74-.15 12.37-3.42 16.69-8.44.05-.05 0-.13-.07-.08m-23.86 8.37a5 5 0 002.92.61 13 13 0 01-2.9-.59M15.9 28.53a15.25 15.25 0 00-6.06 6.22.07.07 0 00.12.07 17 17 0 016-6.21v-.08m.37.62a16.89 16.89 0 00-5.08 5.59.07.07 0 00.12.07c1.23-2.32 3.18-3.81 5-5.64m17.24 2.33a63.58 63.58 0 00-7.52 7.25c-.05.06 0 .15.09.09 2.37-2.57 4.9-4.94 7.45-7.33m1.06.33A99.42 99.42 0 0027 39.68c-.05 0 0 .13.07.08 2.44-2.74 5-5.31 7.61-7.9m.73 1.43c-2.38 2.07-4.8 4.24-7 6.54 0 0 0 .07.05 0 2.42-2 4.73-4.31 6.94-6.56m4.86 10.16c-6 5.11-12 10.4-17.53 16-.08.08.05.21.13.13 5.66-5.55 11.39-11 17.41-16.16m.1 1.96c-5.9 4.22-11 9.62-16.31 14.58a.07.07 0 10.1.1q8-7.47 16.23-14.66m.61 1.78c-5 4.1-9.69 8.67-14.49 13-.08.07 0 .17.1.11 4.8-4.34 9.83-8.52 14.4-13.09M38 51.52a49.58 49.58 0 00-3.93 3.14s0 .06 0 0c1.39-.93 2.63-2.1 3.92-3.16m-17.33-4.32c-2.71 2-5.34 4.15-8 6.26-.05 0 0 .11.08.07 2.66-2.07 5.35-4.14 7.93-6.31m.81.8c-2.57 1.87-5 3.94-7.48 5.93a.05.05 0 10.07.08c2.49-2 5.05-3.88 7.44-6"/></g></svg>