<?xml version="1.0" encoding="UTF-8" standalone="no"?>
<svg xmlns="http://www.w3.org/2000/svg" viewBox="0 0 128 128" width="24" height="24">
<path style="fill:#ffffff" d="M 24.621,38.43 C 26.428,33.021 33.643,25.807 39.057,24.001 C 44.465,25.807 55.293,36.629 57.094,42.043 C 55.293,47.452 49.879,52.866 46.271,56.473 C 48.072,61.887 51.68,65.495 57.094,70.903 C 62.507,76.317 66.115,79.925 71.528,81.731 C 75.141,78.123 80.551,72.709 85.961,70.903 C 91.371,72.709 102.2,83.532 104,88.946 C 102.2,94.36 94.981,101.57 89.571,103.38 C 78.751,106.98 62.507,94.36 48.072,79.925 C 33.643,65.495 21.014,49.258 24.621,38.43 Z" />
</svg>
