<svg xmlns="http://www.w3.org/2000/svg" viewBox="0 0 128 128" width="24" height="24"><path d="M24.621 38.43c1.807-5.409 9.022-12.623 14.436-14.429 5.408 1.806 16.236 12.628 18.037 18.042-1.801 5.409-7.215 10.823-10.823 14.43 1.801 5.414 5.409 9.022 10.823 14.43 5.413 5.414 9.021 9.022 14.434 10.828 3.613-3.608 9.023-9.022 14.433-10.828C91.371 72.709 102.2 83.532 104 88.946c-1.8 5.414-9.019 12.624-14.429 14.434-10.82 3.6-27.064-9.02-41.499-23.455-14.429-14.43-27.058-30.667-23.451-41.495z" fill="#fff"/></svg>