<svg id="Layer_1" viewBox="0 0 512 512" xmlns="http://www.w3.org/2000/svg" data-name="Layer 1"><path d="M122.3 480.311a6.079 6.079 0 006.238-.368l127.441-87.66 127.43 87.66a6.012 6.012 0 003.405 1.057 6.37 6.37 0 002.885-.689A6.088 6.088 0 00393 475V37a6.157 6.157 0 00-6.181-6H125.181A6.157 6.157 0 00119 37v438a6.085 6.085 0 003.3 5.311zM131 43h250v58H131zm0 70h250v350.589l-121.509-83.532a6.132 6.132 0 00-3.446-1.057 6.351 6.351 0 00-3.514 1.057L131 463.589z" fill="#fff"/><path d="M280 55h12v32h-12zm-30 0h12v32h-12zm-30 0h12v32h-12zm-30 0h12v32h-12zm-30 0h12v32h-12zm150 0h12v32h-12zm30 0h12v32h-12zm-191 74h12v15h-12zm0 27h12v95h-12zm153.938 172.837a6 6 0 008.706-6.325l-8.965-52.266 37.974-37.015A6 6 0 00337.327 223l-52.478-7.625-23.469-47.557a6 6 0 00-10.76 0l-23.469 47.554L174.673 223a6 6 0 00-3.326 10.234l37.974 37.015-8.965 52.266a6 6 0 008.706 6.325L256 304.161zm-88.7-16.279l7.442-43.392a6 6 0 00-1.725-5.311l-31.527-30.731L232 226.793a6 6 0 004.517-3.282L256 184.031l19.485 39.48a6 6 0 004.515 3.282l43.569 6.331-31.527 30.731a6 6 0 00-1.725 5.311l7.442 43.392-38.969-20.487a6 6 0 00-5.584 0z" fill="#fff"/></svg>