<svg xmlns="http://www.w3.org/2000/svg" id="Layer_1" data-name="Layer 1" viewBox="0 0 512 512"><path d="M443.752 112.271L259 9.493a6.08 6.08 0 00-5.878 0L68.268 112.271A6.182 6.182 0 0065 117.514v134.3a260.267 260.267 0 00156.673 238.631L251.32 502.8a6.207 6.207 0 002.354.464 6.1 6.1 0 002.408-.5l30.886-13.385A260.487 260.487 0 00447 249.391V117.514a6.16 6.16 0 00-3.248-5.243zM435 249.391a248.57 248.57 0 01-152.643 228.954l-28.643 12.4-27.314-11.339A248.26 248.26 0 0177 251.817V121.042L256 21.6l179 99.44z" fill="#fff"/><path d="M253.082 39.9L95.034 127.894A5.953 5.953 0 0092 133.136v118.681A233.492 233.492 0 00232.315 466c.026.012.029.023.057.035l18.852 7.884a5.975 5.975 0 004.69-.031l20.729-8.986A233.511 233.511 0 00420 249.4V133.136a5.953 5.953 0 00-3.034-5.242L258.894 39.9a5.958 5.958 0 00-5.812 0zm-5.5 419.494l-10.516-4.416A221.5 221.5 0 01104 251.817V136.664l145.991-81.28-.6 103.393a97.451 97.451 0 00-1.193 194.363zM261.9 55.32L408 136.664V249.4a221.485 221.485 0 01-136.084 204.465l-12.35 5.358.615-105.865a97.449 97.449 0 001.157-194.658zM341.454 256A85.454 85.454 0 11256 170.546 85.551 85.551 0 01341.454 256z" fill="#fff"/><path d="M133 207h-12v31.817A234.132 234.132 0 00150.074 351.8L160.6 346A222.121 222.121 0 01133 238.817zm-12-31h12v13h-12zm90.561 73.59l-8.614 8.354 32.2 33.215A5.963 5.963 0 00239.4 293h.046a6.013 6.013 0 004.242-1.776l61.3-61.308-8.484-8.49-56.991 56.989z" fill="#fff"/></svg>