<svg xmlns="http://www.w3.org/2000/svg" viewBox="0 0 128 128" width="24" height="24"><path d="M29.133 59.7c20.043-8.732 33.408-14.49 40.096-17.27 19.093-7.943 23.06-9.322 25.647-9.368.569-.01 1.84.131 2.664.8.696.564.887 1.326.979 1.862.091.535.205 1.754.114 2.706-1.034 10.872-5.511 37.254-7.789 49.43-.964 5.153-2.861 6.88-4.699 7.05-3.992.367-7.024-2.64-10.891-5.174-6.052-3.967-9.47-6.436-15.344-10.307-6.788-4.473-2.388-6.932 1.481-10.95 1.012-1.051 18.604-17.052 18.945-18.504.042-.181.082-.858-.32-1.215-.402-.358-.996-.235-1.424-.138-.607.138-10.274 6.527-29 19.168-2.744 1.884-5.23 2.802-7.457 2.754-2.454-.053-7.177-1.388-10.687-2.529-4.306-1.4-7.728-2.14-7.43-4.516.155-1.238 1.86-2.505 5.115-3.799z" fill="#fff"/></svg>