<svg xmlns="http://www.w3.org/2000/svg" viewBox="0 0 128 128" width="24" height="24"><path d="M63.994 24c-8.999 0-23.021.789-31.565 8.221-6.039 5.726-8.431 13.76-8.431 24.158 0 .857-.004 1.829.004 2.857-.008 1.028-.004 1.999-.004 2.856 0 10.4 2.392 18.438 8.431 24.153 3.252 2.838 7.308 4.704 11.567 5.923v8.722c0 3.05 2.099 3.11 2.482 3.11h.017c.989 0 1.843-.46 2.699-1.18.321-.29 4.039-4.23 8.082-8.54 2.408.14 4.696.19 6.716.19 8.999 0 23.02-.78 31.565-8.225C101.6 80.53 104 72.492 104 62.092c0-.857.01-1.828 0-2.856.01-1.047 0-2 0-2.857 0-10.4-2.4-18.434-8.443-24.16C87.014 24.789 72.993 24 63.994 24zM97.99 61.426v.666c0 9.333-2.088 15.714-6.57 20.019-7.763 6.648-22.553 6.648-27.428 6.648-1.483 0-3.891 0-6.734-.191-.79.838-9.263 9.862-9.263 9.862V87.273c-4.206-.971-8.364-2.533-11.426-5.162-4.481-4.305-6.571-10.686-6.571-20.019v-.666c0-.667-.002-1.391.004-2.228-.006-.762-.006-1.486-.004-2.152v-.667c0-9.344 2.09-15.712 6.571-20.022 7.762-6.645 22.551-6.645 27.425-6.645 4.873 0 19.663 0 27.424 6.645 4.484 4.31 6.57 10.678 6.57 20.022v.667c0 .666.002 1.39-.004 2.228.006.761.006 1.485.006 2.152zm-19.997-1.239c-1.104 0-2-.856-2-1.903 0-6.072-4.987-11.082-11.355-11.402-1.104-.055-1.95-.952-1.892-2.002.058-1.051 1.016-1.859 2.102-1.801 8.494.426 15.145 7.106 15.145 15.205 0 1.047-.897 1.903-2 1.903zm4.901 11.143c-2.222-1.771-3.247-2.305-6.315-4.076-1.278-.724-3.225-1.352-4.248-1.352-.698 0-1.534.514-2.045.99-1.313 1.257-1.742 2.819-4.042 2.819-2.25 0-6.179-2.19-9-5.009-2.959-2.686-5.249-6.418-5.249-8.571 0-2.18 1.612-2.619 2.923-3.87.513-.486 1.077-1.282 1.077-1.947 0-.973-.662-2.799-1.428-4.017-1.842-2.923-2.406-3.9-4.28-6.015-.634-.716-1.356-1.043-2.112-1.045-1.277-.002-2.954.602-4.091 1.407-1.708 1.214-3.493 2.865-3.971 4.922-.064.28-.102.562-.114.844-.092 2.143.791 4.318 1.746 6.16 2.245 4.342 5.217 8.532 8.45 12.284 1.034 1.219 2.16 2.324 3.326 3.409 1.132 1.105 2.304 2.172 3.564 3.162 3.94 3.086 8.351 5.905 12.909 8.057 1.916.895 4.172 1.714 6.399 1.657.318 0 .636-.038.954-.114 2.16-.457 3.894-2.152 5.168-3.771.846-1.086 1.479-2.686 1.477-3.905-.002-.724-.345-1.41-1.098-2.019zm1.098-9.238c-1.104 0-1.999-.857-1.999-1.905v-1.903c0-9.451-8.076-17.143-17.999-17.143-1.104 0-2-.853-2-1.904 0-1.052.896-1.905 2-1.905 12.129 0 21.999 9.4 21.999 20.952v1.903c0 1.048-.896 1.905-2.001 1.905zM71.71 58.284c-.888 0-1.7-.572-1.935-1.429-.547-2-2.187-3.562-4.281-4.076-1.07-.265-1.712-1.303-1.436-2.322.276-1.017 1.364-1.628 2.438-1.367 3.496.863 6.236 3.47 7.149 6.813.278 1.009-.362 2.057-1.43 2.324-.17.038-.339.057-.505.057z" fill="#fff"/></svg>