<svg xmlns="http://www.w3.org/2000/svg" viewBox="0 0 128 128" width="24" height="24"><path d="M84.151 73.1c-.257-.412-.917-.655-1.908-1.156-.991-.499-5.86-2.888-6.768-3.221-.909-.322-1.569-.489-2.221.5-.653.998-2.558 3.222-3.136 3.888-.579.665-1.155.744-2.147.244-.992-.489-4.182-1.544-7.964-4.91-2.947-2.634-4.935-5.877-5.51-6.865-.575-.988-.061-1.533.434-2.022.446-.445.99-1.167 1.485-1.744a6.801 6.801 0 00.993-1.666 1.827 1.827 0 00-.084-1.734c-.248-.487-2.224-5.364-3.056-7.353-.801-1.943-1.621-1.666-2.223-1.698-.598-.034-1.236-.034-1.898-.034a3.64 3.64 0 00-2.641 1.243c-.907.99-3.466 3.388-3.466 8.265 0 4.866 3.55 9.576 4.047 10.243.497.654 6.984 10.663 16.924 14.95a56.854 56.854 0 005.648 2.09 13.578 13.578 0 006.237.399c1.905-.279 5.861-2.399 6.687-4.722.825-2.332.8-4.288.567-4.697zM24.191 104l5.624-20.549a39.571 39.571 0 01-5.294-19.816C24.521 41.784 42.313 24 64.166 24a39.654 39.654 0 0139.644 39.681c0 21.848-17.792 39.649-39.64 39.649h-.017a39.605 39.605 0 01-18.945-4.84zM46.18 91.317l1.205.713a32.904 32.904 0 0016.771 4.6h.014c18.161 0 32.947-14.79 32.955-32.961a32.954 32.954 0 10-60.87 17.518l.783 1.243-3.333 12.15z" fill="#fff"/></svg>