<svg id="Layer_1" viewBox="0 0 512 512" xmlns="http://www.w3.org/2000/svg" data-name="Layer 1"><path style="fill:#ffffff" d="m391 301h32v12h-32z"/><path style="fill:#ffffff" d="m391 331h32v12h-32z"/><path style="fill:#ffffff" d="m391 361h32v12h-32z"/><path style="fill:#ffffff" d="m91 224h12v15h-12z"/><path style="fill:#ffffff" d="m91 251h12v135h-12z"/><path style="fill:#ffffff" d="m59.494 479h393.012c3.314 0 6.494-2.619 6.494-5.932v-271.868c0-3.314-3.18-6.2-6.494-6.2h-41.506v-93.874a5.924 5.924 0 0 0 -2.3-4.786 6.285 6.285 0 0 0 -5.391-.986l-45.309 12.546v-68.968a5.649 5.649 0 0 0 -5.644-5.932h-190.681a5.673 5.673 0 0 0 -5.675 5.932v126.168l-98.075 29.946-.214.379a6.3 6.3 0 0 0 -4.711 5.775v271.868c0 3.313 3.18 5.932 6.494 5.932zm387.506-87h-80v-110h80zm-89-271.1 41-11.835v85.935h-41zm-190-75.9h178v150h-23v-81.761a5.859 5.859 0 0 0 -5.552-5.994c-14.89-.7-24.629-13.808-24.942-33.231a6.025 6.025 0 0 0 -5.916-6.014h-59.149a6.1 6.1 0 0 0 -6 6.014c-.314 19.438-9.983 32.494-24.867 33.176a5.921 5.921 0 0 0 -5.574 6.049v81.761h-23zm89.016 115.587c-20.293 0-37.158 15.413-40.164 34.413h-13.852v-76.463c16-3.355 27.936-17.537 30.086-38.537h47.859c2.155 21 14.055 35.165 30.055 38.532v76.468h-13.821c-3.006-19-19.871-34.413-40.163-34.413zm27.951 34.413h-55.9a28.635 28.635 0 0 1 55.9 0zm-128.967-16.9v16.9h-57.153zm-91 28.9h382v63h-86.475c-3.313 0-5.525 2.619-5.525 5.932v122.4a5.334 5.334 0 0 0 5.525 5.668h86.475v63h-382z"/></svg>