<svg id="Layer_1" viewBox="0 0 512 512" xmlns="http://www.w3.org/2000/svg" data-name="Layer 1"><path d="M391 301h32v12h-32zm0 30h32v12h-32zm0 30h32v12h-32zM91 224h12v15H91zm0 27h12v135H91z" fill="#fff"/><path d="M59.494 479h393.012c3.314 0 6.494-2.619 6.494-5.932V201.2c0-3.314-3.18-6.2-6.494-6.2H411v-93.874a5.924 5.924 0 00-2.3-4.786 6.285 6.285 0 00-5.391-.986L358 107.9V38.932A5.649 5.649 0 00352.356 33H161.675A5.673 5.673 0 00156 38.932V165.1l-98.075 29.946-.214.379A6.3 6.3 0 0053 201.2v271.868c0 3.313 3.18 5.932 6.494 5.932zM447 392h-80V282h80zm-89-271.1l41-11.835V195h-41zM168 45h178v150h-23v-81.761a5.859 5.859 0 00-5.552-5.994c-14.89-.7-24.629-13.808-24.942-33.231A6.025 6.025 0 00286.59 68h-59.149a6.1 6.1 0 00-6 6.014c-.314 19.438-9.983 32.494-24.867 33.176a5.921 5.921 0 00-5.574 6.049V195h-23zm89.016 115.587c-20.293 0-37.158 15.413-40.164 34.413H203v-76.463C219 115.182 230.936 101 233.086 80h47.859C283.1 101 295 115.165 311 118.532V195h-13.821c-3.006-19-19.871-34.413-40.163-34.413zM284.967 195h-55.9a28.635 28.635 0 0155.9 0zM156 178.1V195H98.847zM65 207h382v63h-86.475c-3.313 0-5.525 2.619-5.525 5.932v122.4a5.334 5.334 0 005.525 5.668H447v63H65z" fill="#fff"/></svg>