<svg id="Layer_1" viewBox="0 0 512 512" xmlns="http://www.w3.org/2000/svg" data-name="Layer 1"><path d="M256 360.169A103.669 103.669 0 10152.331 256.5 103.787 103.787 0 00256 360.169zM164.564 250a91.3 91.3 0 0122.781-54.17l9.111 9.112 8.486-8.485-9.082-9.083A91.286 91.286 0 01249 165.1V178h12v-13.031a91.273 91.273 0 0154.6 21.942l-9.545 9.546 8.486 8.485 9.642-9.642a91.316 91.316 0 0123.25 54.7H334v12h13.5a91.281 91.281 0 01-22.373 54.64l-10.582-10.582-8.486 8.485 10.612 10.613A91.293 91.293 0 01261 348.031V333h-12v14.9a91.312 91.312 0 01-54.2-23.218l10.141-10.143-8.486-8.485-10.043 10.046A91.268 91.268 0 01164.5 262H179v-12z" fill="#fff"/><path d="M255 263h32v-12h-26v-45h-12v51a6 6 0 006 6z" fill="#fff"/><path d="M172.6 493h160.8a6.048 6.048 0 005.994-5.762l6.373-130.982a134.065 134.065 0 000-199.478l-6.376-132.011A6.05 6.05 0 00333.4 19H172.6a6.046 6.046 0 00-5.994 5.774l-6.412 137.766a134.019 134.019 0 00.049 187.937l6.366 136.746A6.049 6.049 0 00172.6 493zm155.08-12H178.33l-1.3-28h152.015zm1.946-40H176.467l-3.686-79.184a134.106 134.106 0 00160.482 4.471zM178.33 31h149.351l1.352 28H177.026zm-1.863 40h153.145l3.656 75.73a134.1 134.1 0 00-160.536 4.48zm-42.711 185.5A122.244 122.244 0 11256 378.745 122.383 122.383 0 01133.756 256.5z" fill="#fff"/><path d="M215 89h88v12h-88zm-24 0h12v12h-12z" fill="#fff"/></svg>